<!DOCTYPE svg PUBLIC "-//W3C//DTD SVG 20010904//EN" "http://www.w3.org/TR/2001/REC-SVG-20010904/DTD/svg10.dtd">
<svg version="1.0" xmlns="http://www.w3.org/2000/svg" width="800px" height="600px" viewBox="0 0 8000 6000" preserveAspectRatio="xMidYMid meet">
<g id="layer101" fill="#ff5d18" stroke="none">
 <path d="M500 5860 c0 -129 2 -141 20 -152 12 -8 20 -24 20 -40 l0 -28 140 0 c179 0 180 1 180 130 0 125 6 130 145 130 98 0 105 -1 105 -20 0 -11 9 -29 20 -40 11 -11 20 -30 20 -41 0 -12 17 -39 39 -60 33 -34 45 -39 83 -39 29 0 54 7 69 19 22 17 27 17 44 5 10 -8 35 -14 56 -14 31 0 40 -5 62 -39 47 -72 132 -104 215 -82 52 15 107 62 123 106 l12 33 39 -31 c65 -52 191 -49 236 5 8 11 25 12 74 5 145 -19 161 -19 195 2 45 28 61 66 73 168 14 123 14 123 -14 123 -19 0 -24 -6 -30 -37 -3 -21 -6 -50 -6 -65 0 -21 -5 -28 -20 -28 -15 0 -20 7 -20 28 0 15 -3 44 -6 65 -6 31 -11 37 -31 37 -25 0 -25 -1 -18 -65 6 -57 5 -65 -11 -65 -9 0 -32 16 -51 36 -28 30 -38 35 -61 29 -15 -3 -47 -8 -72 -10 -25 -2 -66 -7 -91 -11 -43 -5 -48 -4 -72 26 -15 17 -27 38 -27 46 0 8 -10 14 -25 14 -31 0 -34 -31 -5 -77 28 -47 71 -66 139 -60 31 3 81 7 111 10 50 4 58 2 88 -24 29 -26 40 -29 97 -29 75 0 83 -13 34 -54 -33 -28 -68 -33 -102 -14 -12 6 -37 11 -56 9 -19 -1 -48 4 -64 10 -26 11 -31 10 -50 -13 -75 -89 -211 -49 -224 65 -6 46 -6 47 -41 47 -28 0 -43 8 -71 38 l-36 37 -443 -5 c-518 -6 -472 7 -472 -128 0 -124 1 -122 -133 -120 -112 2 -112 2 -23 5 50 2 96 9 103 15 10 8 13 47 13 149 0 132 -1 139 -20 139 -18 0 -20 -8 -22 -122 l-3 -123 -95 0 -95 0 -3 123 c-2 114 -4 122 -22 122 -19 0 -20 -7 -20 -140z m1228 10 c13 -17 39 -34 62 -41 40 -12 49 -22 30 -34 -5 -3 -10 -15 -10 -26 0 -72 -93 -148 -166 -135 -48 9 -101 59 -114 107 -8 28 -16 39 -30 39 -10 0 -22 -4 -25 -10 -12 -20 -62 -11 -79 15 -21 32 -32 32 -66 -5 -17 -19 -38 -30 -54 -30 -37 0 -76 41 -76 79 0 20 -7 34 -20 41 -48 26 -13 30 253 30 l273 0 22 -30z"/>
 <path d="M3370 5985 c0 -28 -24 -67 -51 -81 -20 -10 -85 -16 -221 -21 l-193 -6 -32 -33 c-33 -32 -33 -33 -33 -128 l0 -96 -477 0 c-439 0 -485 -2 -559 -20 -287 -68 -518 -291 -600 -576 -12 -45 -18 -123 -23 -329 -8 -301 -12 -319 -79 -389 -37 -39 -102 -75 -134 -76 -14 0 -18 9 -18 43 0 78 -49 128 -104 107 -26 -9 -26 -9 -26 39 0 33 -5 53 -17 63 -27 23 -60 30 -83 18 -17 -9 -20 -8 -20 8 0 10 -9 27 -20 37 -15 14 -20 31 -20 75 0 55 1 56 36 69 24 9 40 24 51 47 l17 34 145 0 c175 0 208 11 230 75 12 35 11 45 -2 78 -22 52 -62 67 -177 67 -53 0 -90 4 -90 10 0 6 37 10 90 10 115 0 155 15 177 67 13 33 14 43 2 78 -20 58 -60 75 -176 75 -55 0 -93 4 -93 10 0 6 38 10 93 10 116 0 156 17 176 75 12 35 11 45 -2 78 -27 63 -59 71 -275 64 -176 -6 -182 -6 -182 13 0 17 -7 20 -40 20 -23 0 -58 9 -80 20 -36 18 -59 20 -300 20 -253 0 -260 -1 -260 -20 0 -19 7 -20 165 -20 150 0 165 -2 165 -17 0 -10 3 -35 6 -55 l7 -38 -172 0 -171 0 0 -25 0 -25 260 0 c241 0 264 2 300 20 22 11 57 20 80 20 33 0 40 3 40 20 0 18 6 19 192 13 106 -3 199 -10 206 -16 15 -12 16 -59 0 -75 -8 -8 -48 -12 -115 -12 -97 0 -106 -2 -128 -25 -14 -13 -25 -33 -25 -45 0 -12 11 -32 25 -45 22 -23 31 -25 128 -25 111 0 127 -6 127 -50 0 -44 -16 -50 -127 -50 -97 0 -106 -2 -128 -25 -32 -31 -32 -59 0 -90 22 -23 31 -25 128 -25 111 0 127 -6 127 -50 0 -46 -13 -50 -175 -50 l-151 0 -16 34 c-12 25 -29 38 -63 52 -45 17 -48 17 -93 -2 -39 -16 -50 -27 -66 -66 -19 -45 -19 -48 -1 -94 14 -38 25 -50 56 -63 38 -16 39 -17 39 -68 0 -30 -4 -53 -10 -53 -21 0 -60 -49 -60 -75 0 -24 -2 -25 -34 -19 -29 5 -39 2 -60 -20 -22 -21 -26 -34 -26 -81 l0 -55 -215 0 -215 0 0 -25 0 -25 215 0 215 0 0 -35 0 -35 -215 0 -215 0 0 -30 0 -30 138 0 137 -1 -50 -26 c-68 -35 -155 -126 -191 -198 l-29 -60 -3 -490 -3 -491 48 -2 c149 -6 276 -165 244 -307 -28 -125 -127 -212 -247 -217 l-46 -2 4 -81 c3 -72 8 -91 45 -166 54 -107 104 -165 198 -228 61 -40 71 -51 56 -56 -11 -3 -34 -22 -50 -41 l-31 -35 0 -497 c0 -552 0 -547 -60 -547 -52 0 -60 25 -60 191 0 139 0 142 -26 168 -35 35 -74 35 -74 1 0 -15 6 -25 14 -25 33 0 41 -31 46 -192 l5 -158 -32 0 c-26 0 -33 -4 -33 -20 0 -19 7 -20 104 -20 98 0 105 1 130 26 l26 27 0 486 c0 307 4 500 11 524 13 49 45 68 124 75 57 4 65 3 65 -13 0 -9 15 -32 34 -51 30 -30 40 -34 86 -34 46 0 56 4 86 34 19 19 34 42 34 51 0 16 9 17 74 13 91 -6 121 -23 136 -77 6 -25 10 -186 10 -433 -1 -370 0 -396 20 -452 11 -33 20 -72 20 -88 l0 -28 84 0 c160 0 176 -19 176 -211 l0 -121 34 -34 c32 -32 38 -34 98 -34 74 0 108 14 231 94 48 31 90 56 92 56 3 0 5 -34 5 -75 0 -68 2 -75 20 -75 10 0 71 34 135 75 63 41 117 75 120 75 3 0 5 -34 5 -75 0 -68 2 -75 20 -75 10 0 71 34 135 75 63 41 117 75 120 75 3 0 5 -34 5 -75 0 -68 2 -75 20 -75 17 0 20 -7 20 -40 0 -22 4 -40 9 -40 5 0 12 -39 16 -87 9 -123 12 -133 42 -133 24 0 25 2 20 43 -4 23 -9 72 -13 110 l-6 67 52 0 52 0 -6 -67 c-4 -38 -9 -87 -13 -111 -5 -40 -4 -42 20 -42 30 0 33 10 42 133 4 48 11 87 16 87 5 0 9 18 9 40 0 33 3 40 20 40 19 0 20 7 20 181 l0 182 91 -5 c97 -6 122 -17 162 -70 16 -22 21 -50 26 -155 6 -110 10 -133 28 -159 43 -60 65 -68 218 -75 143 -6 181 -16 229 -58 25 -22 56 -85 56 -116 0 -21 5 -25 30 -25 25 0 30 4 30 25 0 31 31 94 56 116 53 46 83 53 262 57 122 3 172 1 172 -7 0 -6 9 -20 20 -31 37 -37 121 -21 141 26 2 5 29 17 60 27 96 30 166 105 192 207 l14 54 18 -27 c27 -42 34 -97 35 -279 0 -161 1 -168 20 -168 19 0 20 7 20 208 0 230 -7 258 -69 316 -29 28 -31 34 -31 101 0 152 -105 275 -251 292 l-49 6 0 68 c0 76 -6 82 -61 54 -16 -9 -59 -19 -94 -22 l-65 -6 0 317 c0 309 0 316 -20 316 -19 0 -20 -7 -20 -160 0 -122 -4 -170 -15 -197 l-16 -37 -15 29 c-10 19 -11 32 -4 39 5 5 10 31 10 57 0 65 -34 99 -100 99 -66 0 -100 -34 -100 -99 0 -26 5 -52 12 -59 9 -9 9 -15 0 -24 -7 -7 -12 -20 -12 -30 0 -16 -9 -18 -70 -18 l-70 0 0 215 c0 208 -1 215 -20 215 -19 0 -20 -7 -20 -215 l0 -215 -161 0 c-88 0 -169 4 -179 10 -30 16 -40 66 -40 200 0 137 10 184 44 202 11 7 73 15 137 18 107 5 120 8 165 35 30 19 60 49 79 79 29 47 30 54 33 183 l4 133 79 0 79 0 0 -121 0 -121 34 -34 34 -34 206 0 c182 0 206 -2 206 -16 0 -9 15 -31 34 -50 33 -33 37 -34 110 -34 l76 0 0 -196 0 -196 34 -34 c31 -31 39 -34 96 -34 57 0 65 3 96 34 l34 34 0 151 c0 171 11 216 54 227 14 3 38 3 52 0 43 -11 54 -56 54 -227 l0 -151 34 -34 c31 -31 39 -34 96 -34 57 0 65 3 96 34 l34 34 0 151 c0 171 11 216 54 227 44 11 76 -4 92 -41 11 -26 14 -85 14 -245 l0 -210 -72 0 c-115 -1 -158 -13 -195 -54 l-33 -36 0 -120 0 -120 -74 0 c-70 0 -74 -1 -80 -24 -3 -13 -3 -45 0 -70 l7 -45 -124 -3 -124 -3 -3 -57 c-2 -46 2 -64 22 -96 26 -42 56 -122 56 -151 0 -36 31 -121 55 -149 23 -28 25 -37 25 -146 l0 -116 25 0 25 0 0 335 0 335 60 0 c41 0 60 -4 60 -12 0 -51 43 -407 50 -420 6 -10 10 -33 10 -51 0 -28 -5 -36 -36 -50 -37 -18 -64 -65 -64 -112 0 -21 5 -25 29 -25 24 0 28 3 24 23 -3 13 4 33 17 50 42 53 130 25 130 -43 0 -26 4 -30 26 -30 26 0 26 2 21 47 -4 37 -12 54 -36 75 -17 15 -38 28 -46 28 -18 0 -21 70 -5 86 6 6 20 106 32 222 l22 212 58 0 58 0 0 -335 0 -335 25 0 25 0 0 116 c0 110 1 117 24 135 29 23 41 53 61 149 8 41 31 107 50 147 33 68 43 121 29 157 -5 13 -26 16 -125 16 l-119 0 0 70 0 70 -75 0 -75 0 0 83 c0 164 21 189 166 195 l94 4 0 -75 c0 -74 1 -77 35 -112 33 -32 40 -35 95 -35 55 0 62 3 95 35 32 33 35 40 35 95 0 54 -3 62 -34 93 -34 35 -73 47 -148 47 l-38 0 0 241 0 241 -34 34 c-30 30 -40 34 -86 34 -46 0 -56 -4 -86 -34 l-34 -34 0 -150 c0 -199 -13 -232 -90 -232 -77 0 -90 33 -90 232 l0 150 -34 34 c-30 30 -40 34 -86 34 -46 0 -56 -4 -86 -34 l-34 -34 0 -150 c0 -199 -13 -232 -90 -232 -78 0 -90 32 -90 246 l0 164 76 0 c73 0 77 1 110 34 30 30 34 40 34 86 0 46 -4 56 -34 86 -32 32 -38 34 -100 34 l-66 0 0 30 0 30 66 0 c62 0 68 2 100 34 30 30 34 40 34 86 0 46 -4 56 -34 86 -33 33 -37 34 -110 34 l-76 0 0 46 c0 35 6 53 27 78 38 45 53 88 53 151 0 64 -15 106 -54 152 l-28 33 4 302 c3 263 5 307 20 334 21 39 71 82 106 92 15 4 208 7 429 7 373 0 404 -1 420 -18 16 -16 18 -38 18 -196 0 -136 -3 -182 -14 -194 -12 -15 -53 -17 -401 -17 -348 0 -389 2 -401 17 -10 12 -15 59 -17 175 -3 148 -5 158 -23 158 -18 0 -19 -9 -19 -174 l0 -173 26 -27 27 -26 223 0 224 0 0 -60 0 -60 -37 0 c-67 -1 -117 -18 -145 -50 -16 -17 -28 -39 -28 -50 0 -18 -7 -20 -65 -20 l-65 0 0 -250 c0 -243 1 -250 20 -250 17 0 20 -7 20 -40 0 -38 2 -40 30 -40 28 0 30 -2 30 -40 l0 -40 200 0 200 0 0 40 c0 38 2 40 30 40 28 0 30 2 30 40 0 33 3 40 20 40 19 0 20 7 20 250 l0 250 -110 0 -110 0 0 35 0 35 58 0 c117 0 199 -44 247 -132 l30 -53 5 -595 5 -595 32 -61 c40 -76 110 -146 182 -181 48 -23 72 -28 169 -31 l112 -4 0 -59 0 -59 -55 0 c-69 0 -71 -12 -15 -91 l40 -58 -37 -3 c-26 -2 -39 -8 -41 -20 -2 -9 23 -73 55 -142 77 -167 81 -167 158 -2 31 68 55 132 53 142 -2 14 -13 20 -40 22 l-38 3 40 53 c22 29 40 63 40 74 0 20 -5 22 -55 22 l-55 0 0 60 0 60 126 0 126 0 -4 -237 c-3 -267 -8 -289 -76 -341 -35 -27 -37 -27 -241 -33 -129 -3 -214 -9 -227 -17 -12 -6 -34 -25 -48 -43 l-26 -31 0 -219 c0 -212 1 -219 20 -219 11 0 20 5 20 10 0 6 14 10 30 10 17 0 30 -4 30 -10 0 -6 90 -10 250 -10 160 0 250 4 250 10 0 6 11 10 25 10 14 0 25 -4 25 -10 0 -6 41 -9 108 -8 102 2 103 2 25 5 l-83 4 0 84 0 85 113 0 c133 0 156 -5 150 -29 -7 -27 36 -66 101 -92 33 -13 61 -31 64 -41 3 -14 20 -16 106 -17 l102 -1 24 57 c59 143 69 163 85 157 22 -9 19 -23 -24 -123 l-40 -91 30 0 c22 0 32 6 39 25 6 16 15 23 24 19 12 -5 13 -11 6 -24 -10 -18 -5 -19 72 -18 56 1 87 6 96 15 12 12 17 12 31 -2 21 -18 61 -20 61 -2 0 46 -72 81 -114 54 -42 -28 -49 -6 -20 59 14 32 28 61 30 63 3 3 168 -65 183 -75 1 -2 -8 -28 -22 -58 l-26 -56 40 0 c38 0 41 2 60 46 32 71 34 107 10 157 -35 71 -140 119 -218 98 -50 -14 -79 -45 -114 -123 l-28 -63 -1 85 c0 47 5 102 10 122 16 54 41 68 130 68 107 1 149 13 188 54 28 32 32 42 32 94 0 36 -6 66 -16 80 l-15 22 91 0 90 0 -17 -27 c-16 -23 -18 -57 -21 -252 -2 -123 -1 -234 2 -247 9 -36 34 -54 75 -54 49 0 71 24 71 78 l0 42 60 0 c56 0 60 -1 60 -23 0 -33 30 -57 72 -57 65 0 68 10 68 243 0 200 -1 207 -20 207 -19 0 -20 -7 -20 -184 0 -101 -3 -191 -6 -200 -8 -21 -40 -21 -48 0 -3 9 -6 66 -6 128 0 128 -13 158 -71 170 -28 5 -31 9 -24 33 12 52 26 58 155 61 110 3 120 5 120 23 0 18 -9 19 -134 19 -131 0 -134 -1 -160 -26 -23 -23 -26 -35 -26 -90 l0 -64 29 0 c29 0 61 -22 61 -41 0 -5 -47 -9 -105 -9 l-105 0 0 88 c0 107 18 151 70 169 21 7 100 12 203 12 159 1 167 2 167 21 0 19 -11 19 -443 22 -401 3 -445 5 -469 20 -34 22 -50 76 -37 123 14 51 41 65 129 65 107 1 149 13 188 54 l32 36 0 329 c0 180 3 342 6 359 l6 31 27 -25 c14 -14 47 -32 74 -42 l47 -17 0 -249 0 -248 39 -39 39 -39 181 0 181 0 0 25 0 25 -168 0 c-189 0 -204 5 -222 68 -5 20 -10 133 -10 250 l0 212 81 0 c81 0 81 0 120 39 38 38 39 40 39 110 0 67 -2 74 -32 107 -20 21 -48 38 -70 43 -56 13 -108 -3 -145 -43 -32 -34 -33 -39 -33 -121 0 -47 -2 -85 -5 -85 -3 0 -22 9 -43 19 -73 37 -99 87 -108 210 l-7 91 34 0 c63 0 62 -2 67 234 l5 216 38 0 39 0 0 89 0 90 43 3 42 3 5 275 c5 274 5 275 32 325 52 98 150 170 249 182 44 5 49 8 49 31 0 24 -1 25 -59 19 -117 -10 -234 -98 -289 -215 -26 -54 -27 -67 -30 -234 l-3 -178 -725 0 -724 0 0 303 c0 172 -4 308 -10 317 -7 12 -43 16 -178 20 l-168 5 -78 38 c-152 76 -247 210 -266 377 -5 47 -10 241 -10 431 0 318 -2 352 -20 410 -18 58 -54 128 -96 187 l-16 22 121 0 121 0 0 -70 0 -70 45 0 45 0 0 -147 c0 -135 2 -152 24 -198 29 -60 76 -107 136 -134 37 -17 66 -21 163 -21 75 0 117 -4 117 -10 0 -6 11 -21 25 -34 l25 -24 -2 -273 -3 -274 -219 -3 c-155 -2 -223 1 -232 9 -12 9 -14 45 -12 173 l3 161 103 3 102 3 0 -31 c0 -27 3 -30 30 -30 27 0 30 3 30 30 l0 30 85 0 c84 0 85 0 85 25 0 23 -3 25 -50 25 -42 0 -50 3 -50 18 0 11 9 27 20 37 14 13 20 29 18 49 l-3 31 -135 0 -135 0 -3 -31 c-2 -19 3 -36 12 -44 9 -7 16 -23 16 -36 0 -23 -3 -24 -74 -24 -56 0 -77 -4 -87 -17 -11 -12 -14 -59 -14 -204 0 -167 2 -190 18 -206 16 -16 41 -18 266 -18 195 0 251 3 264 14 15 12 17 46 17 302 0 186 4 289 10 289 24 0 50 41 50 80 0 39 -26 80 -50 80 -13 0 -13 310 0 365 6 25 22 52 44 73 68 62 66 70 66 -299 l0 -331 34 -34 c26 -26 42 -34 70 -34 35 0 36 -1 36 -40 0 -33 -3 -40 -20 -40 -20 0 -20 -7 -20 -310 l0 -310 108 0 108 0 -4 -72 c-3 -56 -11 -88 -34 -136 -26 -52 -32 -78 -36 -157 l-5 -95 342 0 341 0 0 59 c0 33 -4 62 -9 65 -4 3 -11 26 -14 51 -7 45 -48 138 -67 150 -5 3 -10 42 -10 86 0 49 -6 94 -15 117 -18 42 -77 107 -117 128 l-28 15 0 204 c0 198 -1 205 -20 205 -17 0 -20 7 -20 40 l0 41 151 -3 152 -3 42 -147 c40 -141 41 -147 23 -162 -23 -20 -23 -68 0 -89 25 -22 75 -21 95 1 22 25 21 68 -1 88 -18 15 -17 20 17 140 19 68 38 124 41 124 3 0 22 -56 41 -124 34 -120 35 -125 17 -140 -23 -20 -23 -68 0 -89 25 -22 75 -21 95 1 22 25 21 68 -1 88 -18 15 -18 20 16 137 19 67 37 125 41 130 4 4 23 -49 43 -118 34 -121 35 -125 17 -141 -42 -38 -11 -104 48 -104 56 0 85 67 44 104 -17 16 -17 21 23 161 l41 145 58 0 c57 0 57 0 57 30 l0 30 -790 2 c-909 3 -822 -8 -828 108 l-4 70 34 0 c44 0 68 26 68 72 0 43 -25 68 -68 68 l-32 0 0 60 0 60 33 0 c43 0 67 26 67 72 0 43 -25 68 -68 68 -31 0 -32 1 -32 46 l0 47 120 -7 120 -7 0 40 c0 39 2 41 30 41 28 0 30 -2 30 -40 l0 -40 150 0 150 0 0 40 0 40 59 0 c75 0 91 -18 91 -102 l0 -58 -33 0 c-43 0 -67 -26 -67 -72 0 -43 25 -68 68 -68 l32 0 0 -60 0 -60 -33 0 c-43 0 -67 -26 -67 -72 0 -44 25 -68 73 -68 29 0 37 -4 37 -19 0 -56 87 -101 159 -81 75 20 81 38 81 241 0 217 9 249 70 249 54 0 55 -4 60 -219 7 -284 3 -280 303 -280 l187 -1 0 24 0 25 -195 3 c-259 4 -238 -16 -245 249 l-5 201 -28 24 c-37 32 -112 34 -150 4 -39 -31 -47 -77 -47 -266 0 -159 -1 -172 -20 -189 -28 -25 -76 -23 -103 4 -21 21 -22 30 -27 302 l-5 281 -33 29 -32 29 -349 0 c-336 0 -349 1 -374 20 -37 29 -47 76 -47 221 0 147 -18 215 -78 294 -33 44 -95 99 -139 124 -14 8 -12 15 20 52 46 53 77 134 77 199 l0 50 70 0 70 0 0 -172 c0 -95 4 -180 9 -188 6 -8 24 -14 45 -13 20 1 39 -3 42 -8 3 -5 34 -9 70 -9 51 0 68 4 84 20 11 11 30 20 43 20 44 0 47 13 47 212 l0 188 -25 0 -25 0 -2 -177 c-1 -98 -3 -159 -5 -135 -4 39 -6 42 -33 42 -32 0 -37 -9 -43 -85 -3 -27 -4 -20 -5 23 -2 62 -2 62 -32 62 -32 0 -36 -8 -43 -80 -2 -22 -4 -14 -5 23 -2 56 -2 57 -31 57 -29 0 -30 -2 -34 -52 -2 -29 -4 24 -5 119 -1 94 -5 178 -8 187 -5 14 -36 16 -243 15 -134 -1 -225 -4 -211 -9 16 -5 -8 -8 -72 -9 -59 -1 -98 3 -98 9 0 6 -50 10 -131 10 l-131 0 4 -97 c4 -89 2 -101 -19 -132 -13 -18 -23 -44 -23 -56 0 -19 -7 -23 -49 -29 -69 -9 -168 -61 -227 -120 -49 -50 -114 -162 -114 -198 0 -27 -13 -22 -35 15 -29 48 -112 133 -164 166 -25 16 -75 40 -111 53 l-65 23 -818 0 -817 0 0 63 c0 83 19 126 60 141 18 6 92 11 165 11 l133 0 58 -39 c121 -81 278 -104 401 -61 69 24 77 31 60 54 -13 18 -15 18 -61 1 -47 -18 -70 -15 -48 7 16 16 16 100 0 116 -6 6 -9 14 -6 18 11 10 71 -14 141 -56 l66 -40 143 0 c125 0 147 3 176 20 39 24 72 75 72 113 0 22 -4 27 -25 27 -19 0 -25 -5 -25 -21 0 -12 -15 -36 -34 -55 l-34 -34 -127 0 -127 0 -56 35 c-89 54 -159 75 -254 75 -130 -1 -258 -54 -221 -91 9 -9 24 -7 65 9 29 11 64 24 77 27 l24 7 -22 -23 c-29 -31 -29 -106 0 -137 l20 -23 -28 7 c-47 12 -96 35 -149 70 -40 26 -61 34 -97 34 l-47 0 20 33 c11 17 20 44 20 60 0 22 -4 27 -25 27 -15 0 -25 -6 -25 -15z m2252 -68 c6 -71 26 -117 72 -165 91 -97 241 -105 343 -17 57 49 83 106 83 184 0 59 1 62 23 59 19 -3 22 -10 25 -61 8 -152 -134 -291 -298 -291 -161 0 -287 120 -304 292 l-7 62 29 0 c29 0 29 -1 34 -63z m179 7 c-21 -15 -51 -70 -51 -94 0 -6 44 -10 120 -10 76 0 120 4 120 10 0 24 -30 79 -51 94 -23 15 -20 16 57 16 l81 0 -8 -47 c-8 -40 -52 -123 -66 -123 -3 0 -13 10 -23 23 -15 18 -22 20 -37 11 -27 -17 -28 -43 -1 -53 23 -9 22 -9 -7 -16 -16 -4 -38 -9 -47 -11 -25 -7 -104 16 -89 25 7 5 11 19 9 32 -4 33 -45 39 -56 8 -8 -22 -9 -21 -34 12 -27 36 -48 89 -48 120 0 17 9 19 77 19 74 0 77 -1 54 -16z m-2003 -26 c7 -7 12 -24 12 -38 0 -14 -5 -31 -12 -38 -7 -7 -24 -12 -38 -12 -14 0 -31 5 -38 12 -7 7 -12 24 -12 38 0 14 5 31 12 38 7 7 24 12 38 12 14 0 31 -5 38 -12z m2117 -18 c4 -6 -14 -10 -47 -10 -38 0 -49 3 -38 10 20 13 77 13 85 0z m-2970 -200 c0 -82 -3 -150 -7 -150 -5 0 -17 9 -28 20 -18 18 -20 33 -20 130 0 97 2 112 20 130 11 11 23 20 28 20 4 0 7 -67 7 -150z m100 0 c0 -82 -1 -150 -3 -150 -17 0 -42 26 -51 51 -14 40 -14 159 -1 196 10 25 35 53 49 53 3 0 6 -67 6 -150z m2523 12 c-39 -4 -43 1 -28 38 l13 31 22 -33 23 -33 -30 -3z m125 -71 c31 -16 81 -35 111 -41 50 -10 56 -14 56 -37 l0 -26 -112 5 c-128 5 -167 19 -198 71 -31 50 -27 57 34 57 40 0 68 -7 109 -29z m-210 -10 c7 -36 59 -96 101 -118 22 -11 68 -18 154 -21 l122 -5 0 -103 0 -104 -120 0 -120 0 0 -50 c0 -47 -2 -50 -25 -50 -25 0 -25 -1 -25 -90 l0 -90 -144 0 -143 0 -7 32 c-8 42 -76 105 -121 114 -35 6 -35 7 -35 58 1 88 19 185 46 237 47 93 134 170 232 205 60 21 79 18 85 -15z m644 -30 c61 -41 111 -102 140 -168 12 -28 18 -84 23 -203 4 -108 11 -174 20 -190 12 -23 12 -24 -3 -12 -22 18 -34 62 -46 154 -11 96 -46 173 -107 238 -52 56 -148 108 -213 117 -38 5 -42 8 -39 31 3 21 11 27 56 38 30 8 61 18 70 24 27 15 36 12 99 -29z m-3795 -103 l3 -103 183 -3 182 -2 0 -95 0 -94 -457 -3 -458 -3 -67 -32 c-88 -41 -160 -113 -201 -201 l-32 -67 -3 -269 c-3 -314 1 -338 77 -417 l47 -49 -328 0 c-321 0 -328 0 -328 20 0 13 7 20 18 20 48 0 119 36 168 85 75 75 81 102 87 395 5 205 9 258 26 324 74 280 289 495 566 566 43 11 95 20 116 20 l38 0 3 -97 3 -98 113 -3 112 -3 0 106 0 105 65 0 64 0 3 -102z m468 -58 l0 -160 210 0 210 0 0 160 0 160 55 0 55 0 0 -285 0 -285 -295 0 -295 0 0 285 0 285 30 0 30 0 0 -160z m380 130 c0 -16 -2 -30 -4 -30 -19 0 -69 26 -77 41 -9 17 -6 19 36 19 43 0 45 -1 45 -30z m310 -255 l0 -285 -55 0 -55 0 0 285 0 285 55 0 55 0 0 -285z m150 0 l0 -285 -60 0 -60 0 0 285 0 285 60 0 60 0 0 -285z m140 0 l0 -285 -60 0 -60 0 0 285 0 285 60 0 60 0 0 -285z m140 0 l0 -285 -55 0 -55 0 0 285 0 285 55 0 55 0 0 -285z m130 0 l0 -285 -50 0 -50 0 0 285 0 285 50 0 50 0 0 -285z m712 256 c84 -27 174 -93 227 -167 43 -60 81 -163 81 -218 0 -27 -6 -34 -47 -56 -68 -36 -95 -86 -91 -166 6 -106 68 -164 176 -164 69 0 113 24 151 83 13 20 28 34 33 31 39 -24 118 -201 118 -262 0 -25 -5 -30 -30 -35 -16 -4 -38 -15 -49 -26 -19 -19 -20 -19 -37 0 -39 43 -141 47 -197 7 -27 -18 -30 -19 -47 -3 -45 40 -161 39 -203 -3 -19 -19 -20 -19 -38 -1 -42 42 -146 47 -201 8 -28 -19 -28 -19 -55 0 -16 10 -45 22 -65 26 -32 5 -38 10 -38 31 0 50 68 214 89 214 3 0 11 -8 18 -18 30 -49 151 -68 220 -35 69 32 106 126 84 210 -13 48 -76 111 -121 120 -24 4 -30 11 -30 32 -1 40 -34 104 -75 146 -55 54 -111 76 -195 76 -96 0 -161 -35 -207 -111 -32 -52 -33 -58 -33 -165 0 -203 -25 -274 -119 -340 l-43 -30 -326 -5 c-348 -6 -356 -7 -416 -59 -24 -21 -56 -84 -56 -111 0 -15 -7 -20 -24 -20 -35 0 -84 -45 -96 -88 -5 -20 -10 -99 -10 -174 l0 -138 -165 0 -165 0 0 71 c0 70 -1 72 -39 110 -36 37 -42 39 -99 39 -50 0 -66 -4 -91 -26 l-31 -26 -31 26 c-25 22 -41 26 -89 26 -48 0 -64 -4 -89 -26 l-31 -26 -31 26 c-25 22 -41 26 -89 26 -48 0 -64 -4 -89 -26 l-31 -26 -31 26 c-25 22 -41 26 -91 26 -57 0 -63 -2 -99 -39 -37 -37 -39 -41 -39 -105 l0 -66 -32 0 c-73 1 -169 74 -204 155 -14 31 -18 80 -22 221 -6 226 6 325 49 405 53 99 160 179 260 195 l42 7 -19 -26 c-15 -21 -27 -26 -60 -27 -32 0 -49 -7 -73 -29 l-31 -29 6 -159 c6 -158 6 -158 43 -228 l37 -70 152 -3 152 -3 0 -39 0 -40 280 0 280 0 0 220 c0 140 -4 220 -10 220 -5 0 -10 20 -10 44 0 53 -8 76 -25 76 -7 0 -15 9 -18 20 -3 13 -14 20 -29 20 -15 0 -32 11 -46 30 l-23 30 111 0 110 0 0 -89 0 -89 161 -91 161 -91 378 0 378 0 161 91 161 91 0 310 0 310 298 -4 c270 -5 303 -7 364 -27z m-2612 -66 l0 -65 -65 0 -65 0 0 65 0 65 65 0 65 0 0 -65z m360 0 l0 -65 -65 0 -65 0 0 65 0 65 65 0 65 0 0 -65z m180 0 l0 -65 -65 0 -65 0 0 65 0 65 65 0 65 0 0 -65z m356 -5 l134 0 0 -52 0 -53 -165 0 -165 0 0 78 0 79 31 -26 c30 -25 35 -26 165 -26z m-2616 3 c0 -10 3 -35 6 -55 5 -31 4 -38 -10 -38 -13 0 -16 11 -16 55 0 30 5 55 10 55 6 0 10 -8 10 -17z m120 -43 c0 -16 -4 -30 -10 -30 -5 0 -10 14 -10 30 0 17 5 30 10 30 6 0 10 -13 10 -30z m5472 -6 c108 -55 172 -152 189 -287 14 -114 24 -140 70 -185 l39 -40 -32 -6 c-44 -9 -92 -48 -114 -93 -15 -32 -19 -69 -22 -231 -4 -172 -6 -193 -21 -190 -9 2 -30 27 -47 55 -35 59 -44 110 -44 251 l0 92 45 0 45 0 0 180 0 180 -25 0 c-23 0 -25 3 -25 50 l0 50 -90 0 -90 0 0 106 0 106 37 -7 c20 -4 59 -18 85 -31z m-5382 11 c0 -8 -7 -15 -15 -15 -8 0 -15 7 -15 15 0 8 7 15 15 15 8 0 15 -7 15 -15z m2270 -115 c0 -15 -7 -20 -25 -20 -23 0 -24 2 -15 20 6 11 17 20 25 20 8 0 15 -9 15 -20z m80 0 c0 -15 -7 -20 -25 -20 -23 0 -24 2 -15 20 6 11 17 20 25 20 8 0 15 -9 15 -20z m80 0 c0 -15 -7 -20 -25 -20 -23 0 -24 2 -15 20 6 11 17 20 25 20 8 0 15 -9 15 -20z m80 0 c0 -15 -7 -20 -25 -20 -23 0 -24 2 -15 20 6 11 17 20 25 20 8 0 15 -9 15 -20z m1378 -16 c49 -20 90 -60 113 -109 25 -54 24 -72 -6 -79 -14 -4 -43 -23 -65 -42 -41 -37 -60 -82 -60 -141 0 -19 -13 -52 -30 -80 -49 -77 -71 -149 -85 -284 -10 -101 -19 -138 -41 -185 -37 -74 -113 -151 -187 -187 -75 -37 -159 -46 -404 -47 l-203 0 0 110 0 110 -100 0 -100 0 0 46 c0 39 -5 51 -36 82 -39 39 -40 59 -3 106 47 59 55 61 404 66 306 5 322 6 361 27 58 31 103 79 130 138 20 43 24 66 24 161 0 190 25 260 110 305 43 23 127 25 178 3z m1512 -104 c0 -6 -70 -10 -190 -10 -120 0 -190 4 -190 10 0 6 70 10 190 10 120 0 190 -4 190 -10z m-92 -37 c-54 -2 -142 -2 -195 0 -54 1 -10 3 97 3 107 0 151 -2 98 -3z m-3656 -63 l-17 -30 -117 0 c-116 0 -117 0 -146 30 l-30 30 163 0 164 0 -17 -30z m3788 -125 l0 -135 -230 0 -230 0 0 135 0 135 230 0 230 0 0 -135z m-4100 86 c17 -32 11 -60 -15 -77 -52 -34 -111 31 -70 76 23 26 71 26 85 1z m460 0 c17 -32 11 -60 -15 -77 -52 -34 -111 31 -70 76 23 26 71 26 85 1z m2318 -11 c70 -43 78 -136 17 -197 -29 -29 -39 -33 -85 -33 -46 0 -56 4 -85 33 -19 19 -36 48 -40 69 -14 74 48 148 125 148 19 0 50 -9 68 -20z m433 -19 c33 -32 39 -45 39 -80 0 -82 -49 -131 -131 -131 -35 0 -47 6 -81 40 -39 38 -40 42 -36 90 8 77 53 118 132 119 32 1 45 -6 77 -38z m-3381 -25 c0 -14 12 -38 26 -55 l26 -31 -61 0 -61 0 0 45 c0 38 3 45 20 45 11 0 20 5 20 10 0 6 7 10 15 10 9 0 15 -9 15 -24z m460 14 c0 -6 -32 -10 -75 -10 -43 0 -75 4 -75 10 0 6 32 10 75 10 43 0 75 -4 75 -10z m-200 -55 c0 -44 -1 -45 -31 -45 l-31 0 26 31 c14 17 26 37 26 45 0 8 2 14 5 14 3 0 5 -20 5 -45z m500 11 c0 -7 -6 -18 -12 -24 -10 -10 -10 -15 2 -22 11 -7 1 -10 -33 -10 l-48 0 20 26 c12 15 21 32 21 39 0 8 9 10 25 7 14 -2 25 -10 25 -16z m-276 -31 l16 -25 -95 0 c-95 0 -95 0 -95 25 0 25 1 25 79 25 73 0 80 -2 95 -25z m965 1 c-2 -2 -53 -31 -112 -65 l-108 -61 -107 61 c-59 34 -109 63 -111 65 -2 2 96 4 219 4 123 0 221 -2 219 -4z m3301 -41 c0 -14 -4 -25 -10 -25 -5 0 -10 11 -10 25 0 14 5 25 10 25 6 0 10 -11 10 -25z m40 0 c0 -14 -4 -25 -10 -25 -5 0 -10 11 -10 25 0 14 5 25 10 25 6 0 10 -11 10 -25z m120 0 c0 -14 -4 -25 -10 -25 -5 0 -10 11 -10 25 0 14 5 25 10 25 6 0 10 -11 10 -25z m40 0 c0 -14 -4 -25 -10 -25 -5 0 -10 11 -10 25 0 14 5 25 10 25 6 0 10 -11 10 -25z m40 0 c0 -14 -4 -25 -10 -25 -5 0 -10 11 -10 25 0 14 5 25 10 25 6 0 10 -11 10 -25z m40 0 c0 -14 -4 -25 -10 -25 -5 0 -10 11 -10 25 0 14 5 25 10 25 6 0 10 -11 10 -25z m40 0 c0 -14 -4 -25 -10 -25 -5 0 -10 11 -10 25 0 14 5 25 10 25 6 0 10 -11 10 -25z m40 0 c0 -14 -4 -25 -10 -25 -5 0 -10 11 -10 25 0 14 5 25 10 25 6 0 10 -11 10 -25z m40 0 c0 -14 -4 -25 -10 -25 -5 0 -10 11 -10 25 0 14 5 25 10 25 6 0 10 -11 10 -25z m-5150 -60 c0 -31 41 -75 70 -75 11 0 20 -7 20 -15 0 -9 -9 -15 -24 -15 -13 0 -29 7 -36 15 -8 9 -30 15 -56 15 l-44 0 0 50 0 50 35 0 c31 0 35 -3 35 -25z m260 0 c0 -25 0 -25 -93 -25 -92 0 -117 8 -117 37 0 10 26 13 105 13 l105 0 0 -25z m520 15 c0 -6 -55 -10 -145 -10 -138 0 -145 -1 -145 -20 0 -19 7 -20 145 -20 90 0 145 -4 145 -10 0 -6 -28 -10 -65 -10 -58 0 -65 -2 -65 -20 0 -18 7 -20 65 -20 l65 0 0 -115 0 -115 -235 0 -235 0 0 175 0 175 235 0 c150 0 235 -4 235 -10z m-1900 -20 c43 -43 11 -120 -50 -120 -38 0 -70 32 -70 70 0 38 32 70 70 70 17 0 39 -9 50 -20z m5302 -192 c6 -159 23 -221 79 -274 16 -15 29 -32 29 -37 0 -6 -42 -8 -111 -4 -97 5 -116 9 -162 35 -37 21 -61 44 -83 80 -35 57 -44 108 -44 250 l0 92 144 0 143 0 5 -142z m-3922 62 l0 -60 -35 0 c-34 0 -35 1 -35 40 0 37 -3 41 -30 47 -16 3 -30 12 -30 19 0 11 17 14 65 14 l65 0 0 -60z m-262 0 c10 -17 23 -20 77 -20 58 0 65 -2 65 -20 0 -18 -7 -20 -82 -20 l-83 0 -23 40 -23 40 28 0 c17 0 33 -8 41 -20z m4606 14 c27 -10 20 -44 -9 -44 -20 0 -25 5 -25 25 0 26 7 29 34 19z m716 -19 c0 -20 -5 -25 -25 -25 -43 0 -31 46 13 49 6 1 12 -10 12 -24z m-5122 -102 c-38 -2 -98 -2 -135 0 -38 2 -7 3 67 3 74 0 105 -1 68 -3z m2515 -75 c9 -5 23 -29 29 -54 10 -36 16 -44 33 -42 14 2 21 13 25 38 8 50 15 58 60 70 69 19 130 -21 130 -84 0 -21 5 -26 24 -26 20 0 24 6 30 40 10 64 86 95 150 60 25 -13 28 -18 40 -73 5 -22 12 -28 29 -25 16 2 23 11 25 34 4 45 42 77 91 77 57 0 89 -25 97 -73 6 -34 10 -40 30 -40 20 0 24 5 24 30 0 33 38 80 65 80 13 0 15 -41 15 -354 0 -324 2 -359 20 -417 35 -115 109 -211 214 -280 95 -62 164 -79 327 -79 l139 0 0 -400 0 -400 30 0 30 0 0 -90 0 -90 39 0 38 0 8 -202 c4 -113 11 -209 17 -215 6 -7 26 -13 44 -13 l34 0 0 -227 c0 -126 -5 -259 -10 -296 -18 -124 -81 -216 -182 -267 l-61 -30 -223 0 c-252 0 -296 9 -370 75 l-39 35 45 -20 c39 -17 68 -20 226 -20 181 0 181 0 207 25 43 43 43 106 1 149 -28 27 -63 36 -144 36 -65 0 -83 13 -78 57 4 38 39 53 128 53 57 0 83 5 108 20 37 23 72 75 72 107 0 12 20 45 45 73 42 48 45 54 45 108 0 34 -6 66 -14 77 -14 19 -13 32 7 73 15 31 -8 350 -28 398 -8 20 -24 38 -35 41 -19 5 -20 13 -20 273 0 261 -1 268 -23 300 -12 19 -38 43 -57 54 -33 20 -54 21 -307 24 l-273 3 0 148 c0 147 0 149 -26 175 l-27 26 -437 0 -437 0 -44 -23 c-24 -13 -57 -43 -74 -66 l-30 -43 -5 -196 c-4 -174 -7 -193 -18 -167 -16 37 -51 75 -69 75 -11 0 -13 75 -13 401 l0 401 -39 39 c-28 29 -47 39 -70 39 l-31 0 0 89 0 89 48 12 c169 42 314 205 329 370 l6 61 31 -7 c17 -3 39 -11 49 -16z m-3873 -209 l5 -184 30 0 30 0 2 130 c3 156 7 175 33 175 18 0 20 -9 22 -146 3 -127 5 -148 21 -158 12 -8 22 -8 35 0 14 9 18 28 20 98 2 76 5 86 21 86 11 0 22 -7 25 -16 3 -9 6 -109 6 -222 l0 -207 -37 -90 c-20 -49 -38 -92 -39 -94 -2 -2 -21 4 -44 13 -51 20 -168 21 -215 2 l-35 -15 -45 65 c-149 212 -135 185 -135 263 0 69 1 71 25 71 24 0 25 -3 25 -60 0 -52 3 -61 25 -76 53 -34 55 -25 55 225 0 189 2 230 14 234 28 11 35 -20 38 -149 l3 -129 30 0 30 0 3 174 c2 170 9 207 36 198 7 -2 13 -67 16 -188z m2640 141 c18 -18 20 -33 20 -152 l0 -133 -62 0 -63 0 -3 -62 -3 -63 66 0 65 0 0 -115 c0 -102 -2 -117 -20 -135 -22 -22 -60 -26 -90 -10 -35 18 -40 65 -40 341 0 270 5 312 37 337 25 18 70 15 93 -8z m3124 4 c27 -10 20 -44 -9 -44 -20 0 -25 5 -25 25 0 26 7 29 34 19z m716 -19 c0 -20 -5 -25 -25 -25 -43 0 -31 46 13 49 6 1 12 -10 12 -24z m-3730 -310 c0 -188 -1 -195 -20 -195 -19 0 -20 7 -20 195 0 188 1 195 20 195 19 0 20 -7 20 -195z m60 0 c0 -167 -2 -195 -15 -195 -13 0 -15 28 -15 195 0 167 2 195 15 195 13 0 15 -28 15 -195z m50 0 c0 -167 -2 -195 -15 -195 -13 0 -15 28 -15 195 0 167 2 195 15 195 13 0 15 -28 15 -195z m-1533 150 c30 -21 43 -74 43 -175 0 -143 -25 -190 -100 -190 -75 0 -100 47 -100 190 0 143 25 190 100 190 20 0 45 -7 57 -15z m240 0 c30 -21 43 -74 43 -175 0 -143 -25 -190 -100 -190 -75 0 -100 47 -100 190 0 143 25 190 100 190 20 0 45 -7 57 -15z m240 0 c30 -21 43 -74 43 -175 0 -143 -25 -190 -100 -190 -75 0 -100 47 -100 190 0 143 25 190 100 190 20 0 45 -7 57 -15z m248 -9 c29 -29 39 -88 33 -204 -4 -79 -7 -90 -33 -119 -23 -26 -38 -33 -65 -33 -75 0 -100 47 -100 190 0 145 24 190 103 190 27 0 45 -7 62 -24z m3282 -134 c-10 -10 -17 -31 -17 -45 0 -26 -2 -27 -55 -27 l-55 0 0 33 c0 18 -5 38 -12 45 -9 9 7 12 72 12 80 0 82 -1 67 -18z m-2707 -27 c0 -33 -2 -35 -35 -35 -33 0 -35 2 -35 35 0 33 2 35 35 35 33 0 35 -2 35 -35z m3620 -10 l0 -25 -200 0 -200 0 0 25 0 25 200 0 200 0 0 -25z m510 16 c0 -30 -14 -41 -55 -41 -41 0 -55 11 -55 41 0 5 25 9 55 9 30 0 55 -4 55 -9z m210 0 c0 -30 -14 -41 -55 -41 -41 0 -55 11 -55 41 0 5 25 9 55 9 30 0 55 -4 55 -9z m206 -7 c-3 -9 -6 -20 -6 -25 0 -5 -20 -9 -45 -9 -25 0 -45 4 -45 9 0 5 -3 16 -6 25 -5 13 3 16 51 16 48 0 56 -3 51 -16z m-3816 -94 l0 -91 -38 41 c-37 38 -41 40 -101 40 -105 0 -151 -41 -151 -135 l0 -46 145 3 145 3 0 -53 c0 -60 -15 -95 -57 -133 -42 -39 -66 -49 -123 -49 -57 0 -81 10 -123 49 -56 51 -61 71 -65 268 l-4 183 183 3 c101 1 185 3 187 5 1 1 2 -39 2 -88z m-418 -107 c3 -173 5 -192 27 -236 13 -26 41 -62 62 -79 39 -31 39 -32 39 -100 0 -63 3 -72 29 -99 24 -23 38 -29 74 -29 75 0 105 44 107 155 1 35 6 44 42 70 64 47 88 101 88 202 0 77 1 83 20 83 33 0 68 -43 75 -93 4 -25 5 -139 4 -254 -4 -201 -5 -210 -30 -258 -15 -30 -42 -62 -68 -80 -40 -28 -50 -30 -146 -33 -102 -4 -104 -3 -149 28 -80 54 -115 62 -313 67 l-183 6 0 233 c0 222 1 233 20 239 37 12 70 63 70 111 l0 44 100 0 100 0 0 105 c0 83 3 105 14 105 11 0 15 -36 18 -187z m-1812 106 c0 -70 1 -72 39 -110 36 -37 42 -39 99 -39 50 0 66 4 91 26 l31 26 31 -26 c25 -22 41 -26 89 -26 48 0 64 4 89 26 l31 26 31 -26 c25 -22 41 -26 89 -26 48 0 64 4 89 26 l31 26 31 -26 c24 -20 41 -26 81 -26 41 0 55 -5 74 -25 30 -33 88 -34 121 -3 43 40 20 138 -32 138 -12 0 -15 13 -15 55 l0 55 130 0 130 0 0 -132 c0 -174 -6 -203 -45 -243 l-33 -32 -158 -5 c-176 -6 -214 -15 -273 -71 -56 -53 -71 -98 -71 -214 l0 -102 -47 -3 c-44 -3 -48 -5 -51 -31 -2 -16 5 -39 17 -56 21 -29 21 -29 1 -34 -27 -7 -26 -50 2 -90 14 -20 21 -43 20 -66 -1 -20 9 -63 21 -96 21 -58 23 -60 57 -60 34 0 36 2 57 60 12 33 22 76 21 96 -1 23 6 46 20 66 28 40 29 83 2 90 -20 5 -20 6 1 35 27 37 44 24 41 -30 -1 -20 9 -64 21 -97 21 -58 23 -60 57 -60 34 0 36 2 57 60 12 33 22 76 21 96 -1 23 6 46 20 66 28 40 29 83 2 90 -20 5 -20 5 1 34 12 17 19 40 17 56 -3 25 -7 28 -45 31 -48 4 -53 14 -27 65 34 68 84 100 171 112 61 8 108 36 140 84 22 32 23 44 23 207 0 143 3 174 14 174 11 0 15 -28 18 -139 3 -155 13 -181 76 -211 l32 -15 0 -231 0 -230 -102 -10 c-163 -17 -258 -77 -316 -202 -26 -55 -27 -63 -30 -269 l-3 -213 -26 0 c-65 0 -163 -96 -163 -159 0 -22 -2 -23 -62 -16 -82 9 -124 27 -171 73 -74 71 -71 57 -77 457 -5 354 -5 361 -29 408 -28 57 -88 105 -143 113 -33 6 -38 10 -38 33 0 40 -43 124 -85 166 -56 55 -113 77 -201 77 -115 -1 -209 -51 -260 -138 l-27 -46 -15 28 c-39 77 -149 154 -219 154 -33 0 -33 1 -33 48 0 77 -27 140 -84 198 -49 48 -120 84 -168 84 -11 0 -18 7 -18 20 0 20 7 20 415 20 l415 0 0 -71z m-1390 -221 c50 -71 90 -133 90 -137 0 -4 -12 -18 -26 -32 -33 -30 -74 -114 -74 -151 l0 -28 -170 0 -170 0 0 128 c0 70 5 156 10 191 17 120 85 219 192 280 l53 31 3 -76 3 -76 89 -130z m7000 242 c0 -5 -16 -10 -35 -10 -19 0 -35 5 -35 10 0 6 16 10 35 10 19 0 35 -4 35 -10z m210 0 c0 -5 -16 -10 -35 -10 -19 0 -35 5 -35 10 0 6 16 10 35 10 19 0 35 -4 35 -10z m205 0 c-3 -5 -17 -10 -30 -10 -13 0 -27 5 -30 10 -4 6 8 10 30 10 22 0 34 -4 30 -10z m-875 -295 l0 -265 -230 0 -230 0 0 265 0 265 230 0 230 0 0 -265z m-5905 236 c22 -10 59 -38 81 -63 42 -46 58 -81 68 -155 6 -40 4 -43 -16 -43 -58 0 -184 -91 -212 -151 -5 -11 -7 -12 -12 -1 -4 8 -19 29 -35 47 -16 18 -29 36 -29 41 0 4 18 52 40 105 34 82 40 109 40 168 0 81 5 84 75 52z m6341 -22 c-6 -22 -12 -34 -14 -27 -2 7 -7 25 -12 41 -8 24 -7 27 14 27 22 0 23 -2 12 -41z m210 0 c-6 -22 -12 -34 -14 -27 -2 7 -7 25 -12 41 -8 24 -7 27 14 27 22 0 23 -2 12 -41z m213 29 c-2 -24 -17 -63 -18 -48 -1 8 -4 25 -7 38 -5 16 -2 22 10 22 9 0 16 -6 15 -12z m-3865 -43 c18 -14 13 -15 -58 -15 -69 0 -77 2 -66 15 16 20 98 19 124 0z m-1129 -45 c0 -18 -6 -26 -23 -28 -27 -4 -40 22 -22 44 19 22 45 13 45 -16z m1123 -17 c-26 -2 -71 -2 -100 0 -29 2 -8 3 47 3 55 0 79 -1 53 -3z m3682 -107 c0 -20 -27 -39 -45 -32 -25 9 -30 37 -10 52 20 15 55 2 55 -20z m-6830 -128 l45 -23 3 -95 c4 -116 -8 -159 -53 -199 -61 -54 -163 -38 -205 32 -17 27 -20 51 -20 153 l0 122 38 15 c56 24 139 21 192 -5z m566 -14 c30 -18 60 -48 79 -78 27 -44 30 -58 30 -126 0 -68 -3 -82 -30 -126 -19 -30 -49 -60 -79 -79 -44 -27 -58 -30 -126 -30 -68 0 -82 3 -126 30 -159 99 -150 335 18 419 74 38 163 34 234 -10z m528 22 c126 -53 184 -212 121 -335 -84 -167 -321 -176 -419 -17 -38 61 -47 154 -21 221 19 51 87 116 137 132 48 16 144 15 182 -1z m881 -53 c-32 -32 -64 -97 -65 -130 0 -19 -6 -22 -47 -25 -44 -3 -48 -5 -51 -31 -2 -16 5 -39 17 -56 21 -29 21 -29 1 -34 -11 -3 -20 -12 -20 -21 0 -12 -10 -16 -35 -16 l-35 0 0 95 c0 97 10 135 49 179 33 37 102 62 180 65 l34 1 -28 -27z m-2238 -259 c18 -32 80 -83 109 -90 13 -4 51 -4 83 -2 114 8 170 83 172 229 l1 84 19 -40 c15 -30 19 -56 17 -106 -4 -85 -42 -150 -112 -194 -44 -27 -58 -30 -126 -30 -68 0 -82 3 -126 30 -68 43 -107 108 -112 191 -4 55 0 72 24 122 l29 57 5 -115 c3 -63 10 -125 17 -136z m6558 152 c22 -38 25 -54 25 -142 0 -115 -10 -138 -68 -154 -82 -22 -80 -25 -84 110 -3 119 -3 120 20 120 21 0 22 4 22 76 l0 75 30 -21 c16 -12 41 -41 55 -64z m-3245 -1 c31 0 35 3 38 28 2 15 8 27 14 27 14 0 3 -97 -13 -116 -14 -17 -43 -18 -70 -4 -16 9 -19 21 -18 68 1 43 3 50 8 27 5 -26 10 -30 41 -30z m3020 -91 c-6 -14 -10 -68 -10 -121 l0 -96 -42 7 c-59 10 -85 29 -97 73 -12 42 -14 106 -5 141 6 20 12 22 85 22 l79 0 -10 -26z m-6460 -21 c0 -72 90 -190 168 -222 l32 -13 0 -574 0 -573 35 -36 c33 -32 40 -35 95 -35 54 0 62 3 94 34 l34 35 4 135 c3 126 4 136 27 160 34 36 88 36 122 0 23 -25 24 -32 29 -212 5 -174 7 -190 28 -225 13 -20 44 -49 68 -63 40 -24 52 -26 132 -22 101 4 143 24 184 90 21 34 27 37 66 38 l42 0 0 -165 c0 -145 -2 -165 -16 -165 -9 0 -31 -15 -50 -34 -30 -30 -34 -40 -34 -86 0 -46 4 -56 34 -86 19 -19 43 -34 55 -34 13 0 21 -6 21 -17 0 -35 49 -123 92 -165 78 -78 189 -112 278 -86 38 12 53 12 99 -1 47 -13 60 -13 112 0 41 11 63 12 76 5 24 -13 143 -13 167 1 14 7 31 6 65 -4 55 -17 128 -10 181 17 53 27 125 111 152 178 23 56 23 65 26 485 l3 427 21 0 c60 0 158 99 158 160 0 23 1 23 87 16 67 -5 97 -12 130 -31 47 -28 93 -96 93 -138 l0 -27 -111 0 c-116 0 -135 -5 -182 -49 -43 -39 -59 -78 -59 -141 0 -63 16 -102 59 -141 45 -42 73 -52 143 -52 70 0 98 10 143 52 49 44 57 71 57 181 l0 100 31 0 32 0 -5 -113 c-5 -117 -17 -157 -62 -205 -40 -45 -89 -62 -178 -62 -112 -1 -157 -12 -190 -50 l-28 -30 0 -317 0 -316 -65 6 c-35 3 -78 13 -94 22 -55 28 -61 23 -61 -55 l0 -70 -80 0 -80 0 0 38 c0 47 -14 62 -60 62 -54 0 -60 -12 -60 -120 0 -108 6 -120 60 -120 46 0 60 15 60 62 l0 38 80 0 80 0 0 -70 c0 -78 6 -83 61 -55 16 9 59 19 94 22 l65 6 0 -78 c0 -74 1 -78 34 -111 21 -21 44 -34 60 -34 l26 0 0 -110 c0 -129 11 -150 80 -150 69 0 80 21 80 150 l0 110 160 0 160 0 0 -110 c0 -127 12 -150 76 -150 75 0 94 36 94 178 0 77 1 82 21 82 12 0 36 15 55 34 33 33 34 37 34 111 l0 78 65 -6 c35 -3 78 -13 94 -22 54 -28 61 -22 61 50 0 64 0 65 28 65 42 0 124 -43 160 -84 40 -46 57 -86 66 -157 l7 -55 -70 4 c-82 5 -130 -9 -178 -51 -48 -42 -73 -99 -73 -169 0 -48 -3 -58 -20 -63 -11 -3 -24 -14 -30 -24 -8 -17 -29 -19 -187 -23 -205 -5 -242 -15 -305 -86 l-38 -42 -37 42 c-59 65 -105 80 -261 86 -124 5 -136 7 -163 30 -46 38 -52 57 -58 193 -6 116 -9 129 -33 161 -43 56 -79 68 -212 68 l-116 0 0 -175 0 -175 -121 0 -121 0 7 154 c8 166 4 196 -26 196 -17 0 -19 -8 -19 -90 l0 -91 -112 -73 -113 -73 -3 51 c-4 77 -10 96 -32 96 -10 0 -71 -34 -135 -75 l-115 -75 0 59 c0 72 -6 91 -31 91 -10 0 -69 -33 -131 -73 -137 -88 -157 -97 -213 -97 -74 0 -85 19 -85 148 -1 136 -11 180 -50 214 -29 26 -36 28 -125 28 -52 0 -95 4 -95 8 0 5 9 35 20 67 18 53 20 88 23 401 l2 342 24 26 c34 36 88 36 122 0 l24 -26 5 -322 c5 -293 7 -325 24 -351 24 -39 52 -62 101 -85 55 -27 95 -26 95 0 0 11 -8 23 -17 26 -85 27 -153 83 -153 125 0 19 3 18 35 -10 40 -35 96 -61 131 -61 23 0 24 -2 24 -87 0 -70 4 -95 20 -121 31 -51 75 -72 150 -72 111 0 170 55 170 161 0 108 -59 158 -196 167 -92 5 -103 17 -41 41 50 19 155 7 199 -22 56 -38 70 -75 76 -199 4 -90 8 -114 23 -129 26 -26 93 -25 119 1 18 18 20 33 20 168 0 157 8 188 46 180 10 -2 23 -16 29 -33 18 -54 21 -55 116 -55 l89 0 0 -38 c0 -47 14 -62 60 -62 54 0 60 12 60 120 0 108 -6 120 -60 120 -46 0 -60 -15 -60 -62 l0 -38 -68 0 c-70 0 -92 10 -92 42 0 53 -98 80 -140 38 -18 -18 -20 -33 -20 -166 0 -151 -7 -184 -40 -184 -30 0 -40 32 -40 130 0 107 -12 142 -68 192 -47 43 -86 53 -193 53 -85 -1 -119 -16 -147 -66 -15 -26 -21 -29 -47 -24 -49 9 -107 56 -134 110 -26 48 -26 54 -29 298 l-4 248 -34 35 c-32 31 -40 34 -94 34 -55 0 -62 -3 -95 -35 -30 -30 -35 -43 -35 -80 0 -38 -3 -45 -20 -45 -19 0 -20 7 -20 121 l0 121 -39 39 -39 39 -91 0 c-77 0 -91 3 -91 16 0 9 -15 31 -34 50 -30 30 -40 34 -87 34 -48 0 -55 -3 -91 -41 l-39 -41 -45 12 c-132 37 -282 178 -328 307 l-14 41 66 16 c427 105 408 717 -26 798 l-62 12 0 198 0 198 170 0 170 0 0 -27z m2368 -5 c-16 -20 -34 -33 -48 -33 -14 0 -32 13 -47 33 l-26 32 73 0 73 0 -25 -32z m-618 0 c46 -32 71 -68 81 -119 4 -24 8 -186 9 -360 0 -369 3 -383 84 -465 61 -60 121 -84 213 -84 58 0 63 -2 63 -22 0 -57 98 -158 154 -158 16 0 17 -30 14 -424 l-3 -423 -35 -69 c-52 -102 -151 -166 -229 -149 l-28 6 30 32 c78 83 116 230 99 378 -26 214 -137 309 -265 225 -23 -16 -27 -16 -62 5 -50 30 -116 30 -155 0 l-30 -22 -29 22 c-38 28 -112 29 -149 2 -47 -35 -81 -94 -97 -168 -36 -172 -4 -337 85 -439 l31 -34 -31 -7 c-81 -18 -202 57 -255 158 l-29 54 42 40 c39 37 42 44 42 92 0 47 -4 57 -34 87 -19 19 -41 34 -50 34 -14 0 -16 20 -16 164 l0 164 81 4 c74 3 83 6 105 31 13 16 24 41 24 56 0 37 -33 78 -70 86 l-30 7 0 122 0 122 167 229 c95 132 169 243 174 263 16 71 -34 152 -102 166 -17 3 -214 6 -438 6 -377 0 -409 -2 -448 -19 -49 -23 -73 -62 -73 -123 0 -52 0 -52 188 -312 l152 -209 0 -123 0 -122 -30 -7 c-65 -14 -90 -91 -46 -141 20 -24 32 -28 90 -32 36 -2 66 -8 66 -11 0 -10 -40 -46 -67 -60 -12 -6 -51 -11 -86 -11 -74 0 -118 23 -151 80 -19 31 -21 55 -24 218 l-4 183 -33 33 c-55 55 -135 55 -190 0 l-33 -33 -4 -135 c-3 -126 -4 -136 -27 -160 -34 -36 -88 -36 -122 0 l-24 26 -3 554 -3 554 61 0 60 0 0 -165 0 -165 -40 0 -40 0 0 -144 c0 -141 0 -144 26 -170 38 -37 110 -37 148 0 26 26 26 29 26 170 l0 144 -40 0 -40 0 0 174 0 174 30 12 c29 12 111 92 123 120 6 13 8 13 13 1 16 -35 93 -106 139 -127 70 -33 180 -33 250 0 52 24 128 97 140 135 8 27 22 27 30 0 12 -38 88 -111 140 -135 71 -33 180 -33 250 0 83 39 164 144 165 214 0 15 6 22 19 22 10 0 33 -10 51 -22z m4784 -236 c10 -2 48 -1 83 3 55 6 71 12 104 42 l39 35 9 -23 c25 -68 25 -69 -10 -69 -18 0 -41 -7 -51 -17 -17 -15 -19 -15 -36 0 -11 11 -36 17 -62 17 -26 0 -51 -6 -62 -17 -17 -15 -19 -15 -36 0 -28 25 -100 22 -129 -5 l-23 -21 -23 21 c-15 14 -36 22 -60 22 -42 0 -42 -1 -22 47 l15 36 30 -28 c30 -29 83 -44 158 -45 l42 0 2 128 2 127 6 -125 c4 -112 7 -125 24 -128z m-4166 116 c-16 -20 -34 -33 -48 -33 -14 0 -32 13 -47 33 l-26 32 73 0 73 0 -25 -32z m-220 -40 c-16 -20 -34 -33 -48 -33 -14 0 -32 13 -47 33 l-26 32 73 0 73 0 -25 -32z m694 -220 c3 -201 4 -216 27 -261 30 -62 97 -128 158 -159 41 -20 63 -23 153 -23 91 0 112 3 155 24 63 32 124 93 156 156 32 67 40 218 14 295 -9 28 -15 53 -12 56 2 2 37 11 78 18 96 17 119 27 168 72 l41 36 0 -81 c0 -63 -3 -81 -14 -81 -17 0 -66 -56 -66 -75 0 -8 -9 -19 -20 -25 -17 -9 -20 -21 -20 -72 0 -42 5 -67 16 -79 21 -23 13 -45 -43 -116 -59 -75 -73 -110 -73 -180 0 -142 118 -245 262 -230 29 3 63 8 76 12 20 7 22 4 22 -24 l0 -31 -77 0 c-76 0 -76 0 -114 -40 l-38 -40 -216 0 -215 0 0 106 0 106 -34 34 c-30 30 -40 34 -86 34 -46 0 -56 -4 -86 -34 l-34 -34 0 -106 0 -106 -30 0 c-27 0 -30 3 -30 33 -1 71 -66 160 -142 192 -21 8 -78 18 -128 22 -74 5 -90 9 -90 23 0 9 -13 37 -29 62 -21 33 -43 52 -80 69 l-51 24 2 200 c3 180 5 205 24 246 57 124 161 184 326 188 l47 1 3 -212z m377 201 c35 -5 75 -16 89 -23 22 -12 16 -13 -65 -19 -49 -4 -106 -13 -126 -22 -94 -39 -157 -135 -157 -239 0 -50 -4 -62 -26 -83 -14 -13 -29 -21 -33 -18 -3 4 -7 99 -9 211 l-3 204 133 0 c73 0 162 -5 197 -11z m-869 -35 c0 -17 -24 -84 -30 -84 -6 0 -30 67 -30 84 0 3 14 6 30 6 17 0 30 -3 30 -6z m-202 -66 c-16 -20 -34 -33 -48 -33 -14 0 -32 13 -47 33 l-26 32 73 0 73 0 -25 -32z m993 -33 c-44 -51 -61 -98 -61 -171 0 -53 -3 -65 -20 -74 -14 -8 -26 -8 -41 1 -19 10 -20 16 -14 67 9 74 25 110 66 151 27 27 77 58 98 61 1 0 -11 -16 -28 -35z m120 0 c-42 -48 -57 -89 -66 -173 -7 -75 -20 -91 -57 -71 -18 10 -19 17 -13 67 12 100 47 156 117 191 24 11 45 21 47 21 1 0 -11 -16 -28 -35z m120 0 c-44 -51 -61 -98 -61 -171 0 -53 -3 -65 -20 -74 -14 -8 -26 -8 -41 1 -19 10 -20 16 -14 67 12 100 47 156 117 191 24 11 45 21 47 21 1 0 -11 -16 -28 -35z m2929 -11 c6 -14 10 -27 10 -30 0 -2 -20 -4 -45 -4 -40 0 -45 2 -45 23 0 31 7 37 42 37 21 0 31 -6 38 -26z m180 0 c6 -14 10 -27 10 -30 0 -2 -22 -4 -50 -4 -27 0 -50 2 -50 4 0 3 4 16 10 30 7 20 16 26 40 26 24 0 33 -6 40 -26z m160 0 c6 -14 10 -27 10 -30 0 -2 -22 -4 -50 -4 -27 0 -50 2 -50 4 0 3 4 16 10 30 7 20 16 26 40 26 24 0 33 -6 40 -26z m148 -6 c3 -27 1 -28 -37 -28 -46 0 -45 -1 -31 35 8 21 16 26 38 23 21 -2 28 -9 30 -30z m-1245 -1 c60 -39 62 -49 65 -319 l3 -248 -26 -22 c-32 -29 -44 -91 -52 -289 -4 -105 -3 -148 6 -153 16 -10 13 -57 -4 -80 -9 -11 -15 -41 -15 -68 0 -43 5 -54 40 -92 43 -46 47 -60 28 -101 -17 -37 -58 -55 -126 -55 -84 0 -118 -9 -147 -38 -36 -36 -36 -109 1 -146 24 -23 34 -26 98 -26 86 0 120 -15 124 -53 6 -53 -5 -57 -185 -57 -116 0 -173 4 -197 14 -43 18 -100 68 -128 114 l-23 37 -5 570 c-5 569 -5 570 -28 620 -51 110 -137 165 -274 173 l-88 5 0 58 0 59 163 0 c152 0 165 1 186 21 20 19 32 21 111 17 94 -4 126 -17 157 -65 15 -22 19 -55 21 -180 l4 -153 -81 0 c-77 0 -81 -1 -81 -22 0 -13 36 -120 79 -238 70 -193 81 -215 101 -215 20 0 31 22 101 215 43 118 79 225 79 238 0 21 -4 22 -74 22 l-74 0 -4 163 c-4 182 -13 211 -78 254 -29 20 -46 23 -131 23 -93 0 -99 1 -99 21 0 20 3 20 263 17 231 -3 266 -5 290 -21z m-2092 -50 c35 -132 -6 -266 -105 -342 -95 -72 -249 -74 -348 -4 l-30 22 30 13 c24 10 38 10 62 1 22 -8 38 -9 60 0 22 8 38 8 60 0 23 -9 38 -8 61 0 21 8 38 9 50 3 81 -44 151 62 83 125 -27 25 -27 26 -16 91 11 67 54 150 72 139 5 -3 15 -25 21 -48z m-1331 7 c0 -17 -24 -84 -30 -84 -6 0 -30 67 -30 84 0 3 14 6 30 6 17 0 30 -3 30 -6z m1708 -16 c22 -22 13 -28 -38 -28 -27 0 -50 4 -50 8 0 16 25 32 50 32 14 0 31 -5 38 -12z m-4032 -69 c73 -35 136 -99 172 -177 23 -48 27 -71 27 -142 0 -76 -4 -93 -32 -151 -52 -106 -155 -184 -266 -203 -34 -6 -37 -5 -37 17 0 21 6 25 47 31 88 12 183 89 225 181 31 70 31 180 0 250 -42 92 -127 162 -222 181 -46 9 -56 14 -58 33 -3 22 -1 23 40 16 24 -3 71 -20 104 -36z m1768 -8 c40 -38 35 -81 -19 -156 -44 -62 -45 -62 -100 -67 -34 -3 -66 -12 -83 -25 l-28 -21 -27 24 c-37 32 -126 34 -175 4 -32 -20 -32 -20 -65 0 -23 14 -50 20 -95 20 -53 0 -67 -4 -87 -25 -14 -13 -25 -20 -25 -16 0 15 -66 41 -103 41 -32 0 -40 6 -81 64 -29 41 -46 75 -46 93 0 34 24 71 54 83 11 5 209 8 438 7 l416 -2 26 -24z m2274 -8 c-27 -2 -69 -2 -95 0 -27 2 -5 3 47 3 52 0 74 -1 48 -3z m0 -60 c-27 -2 -69 -2 -95 0 -27 2 -5 3 47 3 52 0 74 -1 48 -3z m-68 -113 c0 -46 -3 -60 -14 -60 -23 0 -46 -41 -46 -79 0 -72 84 -109 137 -59 39 36 22 138 -23 138 -11 0 -14 14 -14 60 0 53 2 60 20 60 14 0 20 -7 20 -23 0 -22 23 -61 95 -161 29 -40 35 -57 35 -98 0 -63 -29 -118 -83 -155 -34 -24 -50 -28 -107 -28 -57 0 -73 4 -107 28 -54 37 -83 92 -83 155 0 41 6 58 35 98 72 100 95 139 95 161 0 16 6 23 20 23 18 0 20 -7 20 -60z m-783 34 c8 -21 -13 -42 -28 -27 -13 13 -5 43 11 43 6 0 13 -7 17 -16z m120 0 c8 -21 -13 -42 -28 -27 -13 13 -5 43 11 43 6 0 13 -7 17 -16z m120 0 c8 -21 -13 -42 -28 -27 -13 13 -5 43 11 43 6 0 13 -7 17 -16z m120 0 c8 -21 -13 -42 -28 -27 -13 13 -5 43 11 43 6 0 13 -7 17 -16z m1219 -31 c-8 -65 -34 -97 -79 -101 -44 -4 -77 25 -77 66 0 53 40 79 124 81 l39 1 -7 -47z m-4146 17 c0 -18 -7 -20 -55 -20 -48 0 -55 2 -55 20 0 18 7 20 55 20 48 0 55 -2 55 -20z m6810 -35 l0 -55 -725 0 -725 0 0 55 0 55 725 0 725 0 0 -55z m-6810 -62 c0 -29 -3 -34 -12 -25 -16 16 -63 15 -76 0 -5 -7 -12 -24 -15 -38 -2 -14 -5 3 -6 38 l-1 62 55 0 55 0 0 -37z m3945 -3 c3 -10 20 -31 36 -45 56 -47 162 -28 194 35 15 30 16 30 100 30 l85 0 0 -205 0 -205 -255 0 -255 0 0 205 0 205 44 0 c36 0 46 -4 51 -20z m-3550 -35 c14 -13 25 -35 25 -48 0 -14 7 -31 16 -38 14 -11 18 -10 30 6 8 10 14 30 14 44 0 40 27 61 78 61 54 0 92 -29 92 -71 0 -14 7 -33 16 -40 14 -11 18 -10 30 6 8 10 14 28 14 39 0 36 39 66 87 66 51 0 83 -26 83 -69 0 -37 24 -59 45 -41 8 7 15 23 15 35 0 27 52 75 82 75 18 0 16 -5 -15 -47 -19 -27 -67 -92 -106 -147 l-71 -98 0 -134 0 -134 -30 0 -30 0 0 113 c0 66 4 117 10 123 6 6 10 41 8 80 l-3 69 -35 0 -35 0 -3 -69 c-2 -39 2 -74 8 -80 6 -6 10 -57 10 -123 l0 -113 -40 0 -40 0 0 113 c0 66 4 117 10 123 6 6 10 41 8 80 l-3 69 -35 0 -35 0 -3 -69 c-2 -39 2 -74 8 -80 6 -6 10 -57 10 -123 l0 -113 -30 0 -30 0 0 134 0 134 -81 114 c-45 62 -93 128 -107 146 -20 27 -22 32 -8 32 9 0 28 -11 41 -25z m2995 0 c19 -23 8 -50 -20 -50 -16 0 -26 6 -28 18 -4 18 14 47 28 47 4 0 13 -7 20 -15z m-3420 -25 c0 -13 -7 -20 -20 -20 -13 0 -20 7 -20 20 0 13 7 20 20 20 13 0 20 -7 20 -20z m5760 5 c0 -13 -24 -15 -160 -15 -136 0 -160 2 -160 15 0 13 24 15 160 15 136 0 160 -2 160 -15z m340 -345 l0 -360 -172 0 c-152 0 -177 -2 -204 -19 -51 -31 -79 -86 -79 -158 0 -69 17 -101 75 -140 31 -22 43 -23 196 -23 104 0 164 -4 164 -10 0 -26 -47 -106 -86 -144 -62 -63 -123 -89 -217 -94 -58 -3 -91 0 -125 13 -63 24 -64 26 -49 69 13 37 13 37 31 17 13 -14 31 -21 56 -21 49 0 72 26 68 76 -6 67 -76 95 -122 48 -15 -14 -16 8 -16 240 l0 256 33 0 c61 0 60 -1 65 224 l5 206 38 0 39 0 0 90 0 90 150 0 150 0 0 -360z m300 270 l0 -90 39 0 38 0 8 -212 c4 -120 11 -218 17 -225 6 -7 26 -13 44 -13 l34 0 0 -151 c0 -174 -12 -237 -68 -344 -48 -92 -155 -199 -242 -243 -117 -59 -142 -62 -495 -62 l-320 1 55 58 55 57 40 -20 c34 -18 58 -21 155 -21 107 0 119 2 168 28 77 41 136 99 171 170 16 34 32 70 35 80 4 12 16 17 44 17 48 0 62 14 62 61 0 47 -16 59 -84 66 l-56 6 0 43 0 44 58 0 c67 0 82 11 82 60 0 46 -15 60 -62 60 l-38 0 0 360 0 360 130 0 130 0 0 -90z m360 75 c0 -13 -24 -15 -160 -15 -136 0 -160 2 -160 15 0 13 24 15 160 15 136 0 160 -2 160 -15z m-6780 -55 c14 0 31 5 38 12 7 7 12 8 12 2 0 -18 -24 -34 -50 -34 -26 0 -50 16 -50 34 0 6 5 5 12 -2 7 -7 24 -12 38 -12z m5020 -5 c0 -12 -20 -15 -120 -15 -100 0 -120 3 -120 15 0 13 20 15 120 15 100 0 120 -2 120 -15z m760 -30 l0 -25 -160 0 -160 0 0 25 0 25 160 0 160 0 0 -25z m1000 0 l0 -25 -160 0 -160 0 0 25 0 25 160 0 160 0 0 -25z m-4682 -5 c130 -79 74 -280 -78 -280 -152 0 -208 201 -78 280 43 26 113 26 156 0z m2900 -22 c-3 -9 -32 -13 -98 -13 -66 0 -95 4 -97 13 -4 9 20 12 97 12 77 0 101 -3 98 -12z m-20 -60 c-3 -9 -28 -13 -78 -13 -50 0 -75 4 -77 13 -4 9 16 12 77 12 61 0 81 -3 78 -12z m311 -16 c8 -16 31 -243 31 -314 0 -27 -1 -28 -55 -28 l-55 0 0 68 c0 66 15 226 25 270 7 27 40 30 54 4z m401 -42 l0 -60 -70 0 -70 0 0 60 0 60 70 0 70 0 0 -60z m1000 0 l0 -60 -70 0 -70 0 0 60 0 60 70 0 70 0 0 -60z m-3890 10 c26 -14 40 -63 40 -146 l0 -74 -80 0 -80 0 0 74 c0 80 11 124 37 144 20 14 57 16 83 2z m2154 -15 c-4 -10 -21 -15 -54 -15 -33 0 -50 5 -54 15 -4 12 5 15 54 15 49 0 58 -3 54 -15z m-33 -90 c-9 -25 -18 -45 -21 -45 -3 0 -12 20 -21 45 l-17 45 38 0 38 0 -17 -45z m769 -35 c0 -19 -5 -21 -67 -18 -55 2 -68 6 -71 21 -3 15 5 17 67 17 65 0 71 -2 71 -20z m1000 0 c0 -18 -7 -20 -70 -20 -63 0 -70 2 -70 20 0 18 7 20 70 20 63 0 70 -2 70 -20z m-2310 -35 c0 -13 -31 -15 -215 -15 -184 0 -215 2 -215 15 0 13 31 15 215 15 184 0 215 -2 215 -15z m-681 -16 c53 -19 69 -81 31 -119 -18 -18 -33 -20 -170 -20 -137 0 -152 2 -170 20 -36 36 -24 95 24 116 38 16 240 19 285 3z m1991 -36 c0 -10 -3 -35 -6 -55 l-7 -38 -58 0 -59 0 0 55 0 55 65 0 c55 0 65 -3 65 -17z m1000 -10 c0 -16 -3 -45 -6 -65 l-7 -38 -58 0 -59 0 0 65 0 65 65 0 c64 0 65 0 65 -27z m-2370 -18 c0 -13 -24 -15 -155 -15 -131 0 -155 2 -155 15 0 13 24 15 155 15 131 0 155 -2 155 -15z m-1790 -107 c0 -106 -16 -145 -71 -174 -42 -21 -116 -21 -158 0 -91 48 -96 193 -8 246 26 16 50 20 135 20 l102 0 0 -92z m790 71 c0 -12 15 -36 34 -55 32 -32 38 -34 100 -34 l66 0 0 -30 0 -30 -66 0 c-62 0 -68 -2 -100 -34 -19 -19 -34 -41 -34 -50 0 -14 -21 -16 -174 -16 -103 0 -186 5 -206 11 -45 16 -60 58 -60 169 l0 90 220 0 c217 0 220 0 220 -21z m-2662 -86 c-2 -14 -15 -19 -58 -21 -62 -2 -96 11 -70 28 8 5 41 10 73 10 50 0 58 -2 55 -17z m122 -3 c0 -17 -7 -20 -40 -20 -33 0 -40 3 -40 20 0 17 7 20 40 20 33 0 40 -3 40 -20z m176 9 c11 -18 -17 -29 -78 -29 -51 0 -58 2 -58 20 0 18 7 20 64 20 37 0 68 -5 72 -11z m4342 4 c-15 -2 -42 -2 -60 0 -18 2 -6 4 27 4 33 0 48 -2 33 -4z m-1599 -124 c53 -19 69 -81 31 -119 -18 -18 -33 -20 -170 -20 -137 0 -152 2 -170 20 -36 36 -24 95 24 116 38 16 240 19 285 3z m3298 -34 c30 -21 44 -75 32 -120 -14 -50 -42 -65 -121 -65 l-68 0 0 48 c0 104 32 152 100 152 20 0 45 -7 57 -15z m-789 -12 c3 -10 -36 -13 -175 -13 -248 0 -273 -10 -273 -102 0 -82 0 -82 236 -88 153 -4 208 -8 212 -17 3 -10 -42 -13 -205 -13 -238 0 -260 6 -283 76 -21 64 23 152 85 167 11 3 105 4 209 3 142 -1 190 -4 194 -13z m-348 -83 c0 -15 -7 -20 -25 -20 -29 0 -33 15 -7 29 25 15 32 13 32 -9z m80 0 c0 -16 -7 -20 -30 -20 -23 0 -30 4 -30 20 0 16 7 20 30 20 23 0 30 -4 30 -20z m80 0 c0 -16 -7 -20 -30 -20 -23 0 -30 4 -30 20 0 16 7 20 30 20 23 0 30 -4 30 -20z m80 0 c0 -16 -7 -20 -30 -20 -23 0 -30 4 -30 20 0 16 7 20 30 20 23 0 30 -4 30 -20z m-4619 -56 c15 -14 15 -20 -3 -77 -29 -90 -29 -250 1 -335 l22 -63 -21 -26 c-11 -15 -30 -33 -41 -41 -18 -13 -23 -12 -46 9 -43 41 -45 53 -22 130 18 60 21 87 17 182 -3 68 -12 131 -22 160 -14 40 -15 51 -4 64 28 34 79 33 119 -3z m251 -40 c37 -67 54 -191 38 -283 -14 -80 -52 -159 -97 -203 l-34 -33 -39 42 -39 41 18 54 c11 29 22 80 26 114 7 66 -9 211 -30 260 -12 29 -11 34 4 48 54 49 110 35 153 -40z m-473 49 l20 -18 -21 -60 c-30 -87 -30 -256 1 -343 l22 -63 -21 -30 c-37 -51 -52 -53 -92 -11 -20 20 -45 55 -56 77 -62 125 -51 334 24 432 21 27 32 33 63 33 22 0 48 -7 60 -17z m4601 -9 c0 -10 -7 -14 -22 -12 -32 5 -35 28 -4 28 17 0 26 -5 26 -16z m80 1 c0 -10 -10 -15 -30 -15 -20 0 -30 5 -30 15 0 10 10 15 30 15 20 0 30 -5 30 -15z m80 0 c0 -10 -10 -15 -30 -15 -20 0 -30 5 -30 15 0 10 10 15 30 15 20 0 30 -5 30 -15z m80 0 c0 -10 -10 -15 -30 -15 -20 0 -30 5 -30 15 0 10 10 15 30 15 20 0 30 -5 30 -15z m-4766 -245 c0 -69 -5 -136 -11 -150 -10 -24 -11 -24 -23 20 -17 57 -17 201 0 260 12 44 13 44 23 20 6 -14 11 -81 11 -150z m212 103 c16 -96 6 -253 -16 -253 -18 0 -32 135 -21 215 6 42 11 78 11 81 0 2 4 4 9 4 6 0 13 -21 17 -47z m5044 -544 c-16 -59 -44 -72 -172 -78 l-110 -6 -34 -37 c-32 -35 -34 -42 -34 -108 0 -65 2 -73 33 -106 38 -42 80 -53 190 -54 69 0 81 -3 102 -25 18 -17 25 -35 25 -62 0 -78 -45 -103 -189 -103 l-83 0 -39 -39 c-35 -35 -39 -44 -39 -90 0 -28 -2 -51 -4 -51 -3 0 -83 34 -180 75 -175 76 -210 83 -234 52 -5 -7 -24 -47 -42 -89 l-34 -78 -143 0 -143 0 0 40 0 40 115 0 c126 0 151 7 196 57 40 43 49 66 49 133 0 71 -15 105 -65 148 -38 34 -45 37 -144 52 -100 15 -163 74 -181 171 -6 28 -10 103 -10 165 l0 114 110 0 110 0 0 -50 c0 -45 -3 -51 -30 -65 -65 -34 -68 -103 -8 -222 55 -109 70 -111 121 -10 49 95 58 128 46 173 -7 24 -21 42 -45 56 -35 20 -45 32 -20 22 24 -9 29 17 7 40 -12 12 -21 30 -21 39 0 15 16 17 145 17 l145 0 0 -60 0 -60 -55 0 c-69 0 -71 -12 -15 -91 l40 -58 -37 -3 c-26 -2 -39 -8 -41 -20 -2 -9 23 -73 55 -142 77 -167 81 -167 158 -2 31 68 55 132 53 142 -2 14 -13 20 -40 22 l-38 3 40 53 c22 29 40 63 40 74 0 20 -5 22 -55 22 l-55 0 0 59 0 58 73 6 c177 13 363 133 458 296 l34 58 3 -219 c1 -132 -2 -235 -8 -259z m-860 441 c0 -13 -7 -20 -20 -20 -13 0 -20 7 -20 20 0 13 7 20 20 20 13 0 20 -7 20 -20z m-5490 -25 c0 -18 -5 -25 -20 -25 -15 0 -20 7 -20 25 0 18 5 25 20 25 15 0 20 -7 20 -25z m2690 -5 c21 -21 26 -65 10 -90 -8 -13 -10 -13 -14 0 -3 8 -6 29 -8 45 -3 27 -6 30 -38 30 -32 0 -35 -3 -38 -30 -2 -16 -5 -37 -8 -45 -4 -13 -6 -13 -14 0 -29 46 6 110 60 110 17 0 39 -9 50 -20z m-32 -68 c2 -15 -2 -22 -12 -22 -11 0 -16 9 -16 26 0 31 23 28 28 -4z m-2658 -12 c0 -5 -9 -10 -20 -10 -11 0 -20 5 -20 10 0 6 9 10 20 10 11 0 20 -4 20 -10z m0 -245 c0 -148 -1 -155 -20 -155 -19 0 -20 7 -20 155 0 148 1 155 20 155 19 0 20 -7 20 -155z m2279 95 c162 0 262 -4 266 -10 4 -7 -62 -10 -189 -10 l-196 0 0 -50 c0 -27 -4 -50 -10 -50 -24 0 -50 -41 -50 -80 0 -27 7 -47 20 -60 19 -19 33 -20 250 -20 217 0 231 1 250 20 13 13 20 33 20 60 0 39 -26 80 -50 80 -5 0 -10 15 -10 33 l0 32 52 -3 c51 -3 55 -1 98 40 l45 43 3 -255 c3 -279 0 -312 -29 -341 -18 -18 -36 -19 -365 -19 -206 0 -353 4 -364 10 -34 18 -40 65 -40 337 0 258 0 263 19 253 12 -6 120 -10 280 -10z m-1174 -83 c-11 -5 -35 -5 -54 -2 l-33 6 28 30 28 29 26 -27 c24 -27 24 -28 5 -36z m212 0 c-11 -4 -34 -5 -50 -1 l-29 6 27 28 27 28 23 -26 23 -27 -21 -8z m1213 -32 l0 -55 -160 0 -160 0 0 55 0 55 160 0 160 0 0 -55z m1796 24 c53 -50 17 -139 -56 -139 -55 0 -80 33 -87 111 l-6 62 62 -6 c46 -4 69 -11 87 -28z m-1956 -129 c201 0 209 1 213 20 4 17 4 16 3 -2 l-1 -23 -215 0 c-208 0 -215 1 -216 20 -1 15 0 16 3 3 4 -16 23 -18 213 -18z m-530 -80 l0 -78 -35 -4 -35 -4 0 86 0 86 35 -4 35 -4 0 -78z m1150 2 l0 -88 -35 4 -35 4 0 78 0 79 33 4 c17 2 33 5 35 5 1 1 2 -38 2 -86z m2472 71 c25 -22 23 -55 -9 -126 l-27 -60 -28 59 c-32 68 -35 100 -11 126 20 22 51 23 75 1z m-4107 -74 c0 -50 -3 -64 -15 -64 -11 0 -16 14 -18 54 -4 61 3 84 21 78 8 -2 12 -25 12 -68z m160 0 c0 -50 -3 -64 -15 -64 -11 0 -16 14 -18 54 -4 61 3 84 21 78 8 -2 12 -25 12 -68z m415 1 c0 -63 -2 -70 -20 -70 -18 0 -20 7 -20 70 0 63 2 70 20 70 18 0 20 -7 20 -70z m940 0 c0 -68 -1 -70 -25 -70 -24 0 -25 2 -25 70 0 68 1 70 25 70 24 0 25 -2 25 -70z m2050 64 c0 -3 -12 -21 -27 -41 l-27 -35 -18 24 c-44 56 -44 58 17 58 30 0 55 -3 55 -6z m900 0 c0 -3 -12 -21 -27 -41 l-27 -35 -18 24 c-44 56 -44 58 17 58 30 0 55 -3 55 -6z m-5823 -114 c-10 -27 -27 -41 -27 -22 0 4 -3 17 -6 30 -5 18 -2 22 19 22 24 0 25 -2 14 -30z m696 10 c74 -35 75 -165 2 -198 -14 -7 -44 -12 -65 -12 -87 0 -120 41 -128 159 l-5 74 84 -5 c46 -3 97 -11 112 -18z m4230 -77 c-22 -55 -54 -115 -58 -111 -1 1 -19 36 -39 76 l-36 72 74 0 75 0 -16 -37z m900 0 c-22 -55 -54 -115 -58 -111 -1 1 -19 36 -39 76 l-36 72 74 0 75 0 -16 -37z m-1843 -38 c0 -20 -28 -31 -43 -16 -14 14 -153 15 -162 1 -11 -18 -35 -11 -35 10 0 19 7 20 120 20 101 0 120 -2 120 -15z m1295 -82 c22 -11 66 -23 98 -27 32 -3 72 -13 88 -22 89 -46 93 -192 6 -244 -26 -17 -51 -20 -139 -20 l-108 0 0 25 0 25 -325 0 c-179 0 -325 3 -325 6 0 15 23 45 43 56 15 9 89 14 227 18 202 5 206 5 243 32 60 40 90 93 95 161 l5 58 26 -24 c14 -14 44 -34 66 -44z m-1675 -8 c0 -12 -13 -15 -55 -15 -42 0 -55 3 -55 15 0 12 13 15 55 15 42 0 55 -3 55 -15z m286 -52 c-3 -38 -12 -115 -18 -173 l-12 -105 -17 155 c-24 208 -25 190 17 190 l37 0 -7 -67z m344 52 c0 -12 -13 -15 -60 -15 -47 0 -60 3 -60 15 0 12 13 15 60 15 47 0 60 -3 60 -15z m-630 -197 c-1 -139 -9 -151 -28 -40 -6 35 -22 88 -36 118 l-25 54 45 0 44 0 0 -132z m600 128 c0 -2 -9 -26 -21 -53 -11 -26 -27 -81 -35 -121 -25 -129 -33 -119 -34 36 l0 142 45 0 c25 0 45 -2 45 -4z m-2030 -36 c0 -5 -16 -10 -35 -10 -19 0 -35 5 -35 10 0 6 16 10 35 10 19 0 35 -4 35 -10z m490 0 c0 -5 -16 -10 -35 -10 -19 0 -35 5 -35 10 0 6 16 10 35 10 19 0 35 -4 35 -10z m619 -30 c16 -8 17 -16 10 -59 -4 -27 -14 -62 -22 -78 -22 -42 -98 -108 -141 -123 -35 -11 -38 -10 -61 14 -13 14 -29 26 -35 26 -15 0 -4 94 15 130 15 28 59 71 90 88 25 14 120 15 144 2z m-1121 -7 c-10 -2 -28 -2 -40 0 -13 2 -5 4 17 4 22 1 32 -1 23 -4z m490 0 c-10 -2 -28 -2 -40 0 -13 2 -5 4 17 4 22 1 32 -1 23 -4z m-468 -89 c0 -45 -15 -74 -40 -74 -25 0 -40 29 -40 74 0 35 1 36 40 36 39 0 40 -1 40 -36z m480 -2 c0 -46 -19 -76 -46 -70 -15 2 -20 13 -22 56 l-3 52 35 0 c35 0 36 -1 36 -38z m2520 -157 l0 -95 -310 0 -310 0 0 95 0 95 310 0 310 0 0 -95z m477 71 c-49 -119 -92 -206 -103 -206 -8 0 -14 9 -14 19 0 19 65 174 83 198 10 14 40 5 34 -11z m67 -17 l24 -11 -47 -106 c-26 -58 -52 -107 -57 -109 -5 -2 -18 3 -29 11 -18 13 -18 15 7 72 15 33 36 80 47 107 23 52 21 51 55 36z m896 -88 c0 -102 -5 -121 -30 -121 -25 0 -30 19 -30 121 l0 89 30 0 30 0 0 -89z m70 65 c0 -37 10 -56 30 -56 20 0 30 19 30 56 0 13 5 24 10 24 6 0 10 -15 10 -34 0 -19 3 -41 6 -50 5 -14 -3 -16 -55 -16 l-61 0 0 50 c0 38 4 50 15 50 9 0 15 -9 15 -24z m-5220 -11 c0 -12 -14 -15 -70 -15 -56 0 -70 3 -70 15 0 12 14 15 70 15 56 0 70 -3 70 -15z m4343 -8 c17 -11 14 -20 -28 -116 -25 -58 -47 -106 -49 -109 -2 -2 -16 2 -29 10 l-26 13 47 108 c25 59 51 107 57 107 6 0 19 -6 28 -13z m104 -42 c2 -1 -19 -51 -45 -112 -46 -106 -48 -110 -72 -101 -13 5 -26 11 -28 12 -2 2 18 54 44 114 50 119 46 115 101 87z m358 -14 c22 -10 46 -25 54 -34 10 -13 -1 -11 -45 9 -33 14 -63 30 -68 35 -16 15 16 10 59 -10z m-1535 -111 c0 -6 -37 -10 -90 -10 -53 0 -90 4 -90 10 0 6 37 10 90 10 53 0 90 -4 90 -10z m230 0 c0 -6 -38 -10 -95 -10 -57 0 -95 4 -95 10 0 6 38 10 95 10 57 0 95 -4 95 -10z m200 0 c0 -6 -32 -10 -75 -10 -43 0 -75 4 -75 10 0 6 32 10 75 10 43 0 75 -4 75 -10z m-472 -37 c-27 -2 -69 -2 -95 0 -27 2 -5 3 47 3 52 0 74 -1 48 -3z m232 -8 c-15 -18 -6 -30 25 -38 11 -3 -24 -5 -77 -6 -54 0 -98 3 -98 8 0 4 12 6 26 3 25 -4 26 -3 22 22 -5 26 -5 26 55 26 52 0 58 -2 47 -15z m208 8 c-21 -2 -57 -2 -80 0 -24 2 -7 4 37 4 44 0 63 -2 43 -4z"/>
 <path d="M3140 5136 c0 -39 19 -59 52 -54 19 2 23 10 26 46 l3 42 -40 0 c-40 0 -41 -1 -41 -34z"/>
 <path d="M2810 5136 c0 -42 11 -56 41 -56 30 0 49 23 49 59 0 18 -6 21 -45 21 -41 0 -45 -2 -45 -24z"/>
 <path d="M3430 5445 c0 -33 4 -45 15 -45 11 0 15 12 15 45 0 33 -4 45 -15 45 -11 0 -15 -12 -15 -45z"/>
 <path d="M3430 5315 c0 -33 4 -45 15 -45 11 0 15 12 15 45 0 33 -4 45 -15 45 -11 0 -15 -12 -15 -45z"/>
 <path d="M3430 5190 c0 -29 4 -40 15 -40 11 0 15 11 15 40 0 29 -4 40 -15 40 -11 0 -15 -11 -15 -40z"/>
 <path d="M3430 5065 c0 -33 4 -45 15 -45 11 0 15 12 15 45 0 33 -4 45 -15 45 -11 0 -15 -12 -15 -45z"/>
 <path d="M3560 5450 c0 -33 3 -40 20 -40 17 0 20 7 20 40 0 33 -3 40 -20 40 -17 0 -20 -7 -20 -40z"/>
 <path d="M3560 5320 c0 -33 3 -40 20 -40 17 0 20 7 20 40 0 33 -3 40 -20 40 -17 0 -20 -7 -20 -40z"/>
 <path d="M3560 5195 c0 -38 3 -45 20 -45 17 0 20 7 20 45 0 38 -3 45 -20 45 -17 0 -20 -7 -20 -45z"/>
 <path d="M3562 5068 c2 -30 8 -43 18 -43 10 0 16 13 18 43 3 37 1 42 -18 42 -19 0 -21 -5 -18 -42z"/>
 <path d="M3702 5448 c2 -24 8 -43 13 -43 6 0 11 19 13 43 3 33 0 42 -13 42 -13 0 -16 -9 -13 -42z"/>
 <path d="M3700 5320 c0 -29 4 -40 15 -40 11 0 15 11 15 40 0 29 -4 40 -15 40 -11 0 -15 -11 -15 -40z"/>
 <path d="M3700 5195 c0 -33 4 -45 15 -45 11 0 15 12 15 45 0 33 -4 45 -15 45 -11 0 -15 -12 -15 -45z"/>
 <path d="M3700 5065 c0 -33 4 -45 15 -45 11 0 15 12 15 45 0 33 -4 45 -15 45 -11 0 -15 -12 -15 -45z"/>
 <path d="M3840 5451 c0 -24 5 -41 14 -44 20 -8 26 2 26 45 0 31 -3 38 -20 38 -17 0 -20 -7 -20 -39z"/>
 <path d="M3840 5320 c0 -33 3 -40 20 -40 17 0 20 7 20 40 0 33 -3 40 -20 40 -17 0 -20 -7 -20 -40z"/>
 <path d="M3842 5198 c2 -31 8 -44 21 -46 14 -3 17 4 17 42 0 40 -3 46 -21 46 -18 0 -20 -5 -17 -42z"/>
 <path d="M3842 5068 c2 -31 8 -44 21 -46 14 -3 17 4 17 42 0 40 -3 46 -21 46 -18 0 -20 -5 -17 -42z"/>
 <path d="M3980 5444 c0 -38 3 -45 18 -42 12 2 18 15 20 46 3 37 1 42 -17 42 -18 0 -21 -6 -21 -46z"/>
 <path d="M3980 5314 c0 -38 3 -45 18 -42 12 2 18 15 20 46 3 37 1 42 -17 42 -18 0 -21 -6 -21 -46z"/>
 <path d="M3980 5189 c0 -33 3 -40 18 -37 12 2 18 14 20 41 3 32 0 37 -17 37 -18 0 -21 -6 -21 -41z"/>
 <path d="M3980 5065 c0 -39 3 -46 18 -43 13 2 17 13 17 43 0 30 -4 41 -17 43 -15 3 -18 -4 -18 -43z"/>
 <path d="M2060 5490 c0 -47 12 -71 25 -51 3 6 12 8 20 4 12 -4 15 5 15 44 0 49 -1 50 -30 51 -29 1 -30 0 -30 -48z"/>
 <path d="M2420 5490 c0 -47 12 -71 25 -51 3 6 12 8 20 4 12 -4 15 5 15 44 0 49 -1 50 -30 51 -29 1 -30 0 -30 -48z"/>
 <path d="M2600 5490 c0 -47 12 -71 25 -51 3 6 12 8 20 4 12 -4 15 5 15 44 0 49 -1 50 -30 51 -29 1 -30 0 -30 -48z"/>
 <path d="M5644 5086 c-3 -8 -4 -25 -2 -38 2 -19 9 -23 38 -23 33 0 35 2 35 35 0 32 -3 35 -33 38 -21 2 -34 -2 -38 -12z"/>
 <path d="M5753 5013 l-93 -4 0 -54 0 -55 90 0 c53 0 90 -4 90 -10 0 -6 40 -10 100 -10 l100 0 0 70 0 70 -97 -2 c-54 -1 -140 -4 -190 -5z m241 -49 c3 -9 6 -20 6 -25 0 -12 -103 -12 -116 1 -5 5 -50 11 -99 13 l-90 3 98 2 c56 1 97 6 97 12 0 6 22 10 49 10 35 0 51 -4 55 -16z"/>
 <path d="M1903 5054 c-8 -22 10 -49 32 -49 10 0 22 7 28 16 15 24 1 49 -28 49 -15 0 -28 -7 -32 -16z"/>
 <path d="M2367 5064 c-27 -27 20 -77 49 -53 23 19 13 53 -16 57 -14 2 -29 0 -33 -4z"/>
 <path d="M4636 5019 c-35 -28 -37 -95 -3 -127 32 -30 87 -29 115 1 33 35 30 99 -4 126 -15 12 -39 21 -54 21 -15 0 -39 -9 -54 -21z m72 -38 c8 -4 12 -19 10 -32 -2 -18 -9 -24 -28 -24 -19 0 -26 6 -28 24 -3 20 11 41 28 41 3 0 11 -4 18 -9z"/>
 <path d="M5063 5029 c-29 -15 -46 -60 -38 -98 20 -94 165 -74 165 22 0 19 -8 44 -17 56 -21 25 -78 35 -110 20z m71 -61 c8 -14 7 -21 -6 -34 -30 -30 -75 9 -48 42 16 18 39 15 54 -8z"/>
 <path d="M4758 4351 c-41 -37 -46 -96 -10 -134 12 -13 22 -28 22 -34 0 -6 9 -22 21 -37 16 -20 29 -26 60 -26 21 0 39 -5 39 -11 0 -19 89 -51 126 -45 43 9 90 48 105 90 8 21 22 37 40 43 19 7 29 18 29 31 0 18 -6 20 -59 19 -58 -2 -59 -3 -54 -27 7 -39 -13 -78 -50 -96 -30 -14 -38 -15 -63 -3 -16 8 -37 31 -48 52 l-18 38 -22 -20 c-36 -34 -51 -27 -47 22 1 9 -3 17 -8 17 -14 0 -51 37 -51 50 0 6 9 19 20 30 18 18 33 20 178 20 144 0 162 -2 202 -22 79 -41 84 -58 91 -328 5 -220 7 -239 31 -302 38 -102 85 -173 164 -248 115 -109 262 -170 411 -170 65 0 73 2 73 19 0 24 -19 31 -82 31 -180 0 -390 133 -480 306 -56 107 -60 131 -68 379 -7 243 -12 270 -58 319 -54 57 -89 66 -284 66 l-178 0 -32 -29z"/>
 <path d="M4394 4156 c-29 -29 -34 -41 -34 -80 0 -54 15 -90 47 -111 12 -9 23 -25 23 -36 0 -49 54 -87 109 -76 22 5 34 0 52 -19 36 -39 73 -54 129 -54 92 0 150 43 172 126 9 34 17 43 39 48 28 5 59 30 59 47 0 17 -31 22 -54 9 -14 -7 -36 -9 -55 -5 -31 7 -31 6 -31 -35 0 -148 -183 -196 -245 -64 -24 52 -22 51 -46 21 -36 -47 -87 -25 -76 32 5 25 2 31 -16 37 -37 11 -57 35 -57 69 0 64 13 69 167 75 134 5 138 6 141 28 3 22 3 22 -143 22 l-147 0 -34 -34z"/>
 <path d="M5155 3829 c-5 -7 -21 -9 -46 -5 l-39 6 0 -40 c0 -148 -183 -195 -245 -64 -24 52 -22 51 -46 21 -26 -34 -54 -34 -75 -2 -27 42 -62 28 -50 -20 8 -32 60 -59 102 -52 25 4 37 0 55 -20 47 -49 123 -69 190 -48 59 18 119 91 119 143 0 13 9 21 29 25 33 7 64 34 58 51 -5 15 -44 20 -52 5z"/>
 <path d="M6104 1616 c-86 -86 -5 -222 116 -195 53 12 80 50 80 111 0 44 -4 54 -34 84 -29 29 -41 34 -81 34 -40 0 -52 -5 -81 -34z m124 -32 c15 -10 22 -25 22 -46 0 -42 -25 -68 -66 -68 -57 0 -85 69 -44 110 24 24 57 26 88 4z"/>
 <path d="M3197 4432 c-22 -24 -21 -65 1 -85 40 -36 102 -9 102 45 0 51 -69 78 -103 40z m63 -28 c11 -12 10 -18 -3 -32 -16 -15 -18 -15 -34 0 -13 14 -14 20 -3 32 7 9 16 16 20 16 4 0 13 -7 20 -16z"/>
 <path d="M1863 4186 c-22 -19 -28 -32 -28 -65 0 -50 26 -79 76 -87 51 -9 99 33 99 84 -1 81 -86 120 -147 68z m85 -38 c19 -19 14 -46 -9 -59 -18 -9 -25 -7 -42 10 -20 20 -20 21 -2 41 21 23 36 25 53 8z"/>
 <path d="M2115 4199 c-32 -18 -45 -40 -45 -75 0 -47 9 -63 42 -80 39 -20 92 -11 113 19 20 29 19 90 -2 116 -21 25 -80 36 -108 20z m63 -51 c17 -17 15 -43 -4 -59 -31 -26 -70 25 -44 56 15 18 32 19 48 3z"/>
 <path d="M2355 4199 c-32 -18 -45 -40 -45 -75 0 -47 9 -63 42 -80 39 -20 92 -11 113 19 20 29 19 90 -2 116 -21 25 -80 36 -108 20z m63 -51 c17 -17 15 -43 -4 -59 -31 -26 -70 25 -44 56 15 18 32 19 48 3z"/>
 <path d="M2595 4199 c-32 -18 -45 -40 -45 -75 0 -47 9 -63 42 -80 39 -20 92 -11 113 19 20 29 19 90 -2 116 -21 25 -80 36 -108 20z m63 -51 c17 -17 15 -43 -4 -59 -31 -26 -70 25 -44 56 15 18 32 19 48 3z"/>
 <path d="M3720 3770 c0 -27 3 -30 30 -30 27 0 30 3 30 30 0 27 -3 30 -30 30 -27 0 -30 -3 -30 -30z"/>
 <path d="M3940 3770 c0 -27 3 -30 30 -30 27 0 30 3 30 30 0 27 -3 30 -30 30 -27 0 -30 -3 -30 -30z"/>
 <path d="M2339 3720 c-29 -17 -43 -66 -29 -100 15 -37 37 -50 83 -50 67 0 105 92 57 140 -21 21 -82 27 -111 10z m76 -70 c0 -31 -33 -40 -52 -14 -16 22 1 46 31 42 15 -2 21 -10 21 -28z"/>
 <path d="M2551 2786 c-7 -8 -11 -32 -9 -53 2 -31 8 -39 31 -47 17 -6 37 -6 55 0 22 8 28 16 30 47 4 49 -11 67 -58 67 -21 0 -43 -6 -49 -14z"/>
 <path d="M6640 3950 l0 -50 120 0 120 0 0 50 0 50 -120 0 -120 0 0 -50z m133 3 c-18 -2 -48 -2 -65 0 -18 2 -4 4 32 4 36 0 50 -2 33 -4z"/>
 <path d="M6520 3700 l0 -160 180 0 180 0 0 160 0 160 -180 0 -180 0 0 -160z m180 110 c0 -5 -12 -10 -27 -10 -16 -1 -43 -9 -61 -18 -31 -17 -31 -19 -16 -40 14 -21 17 -21 44 -7 37 19 60 19 60 0 0 -10 -10 -15 -30 -15 -39 0 -40 -25 -4 -86 l26 -44 -66 0 -66 0 0 115 0 115 70 0 c40 0 70 -4 70 -10z m130 -105 l0 -115 -40 0 c-36 0 -41 3 -60 40 -18 35 -19 41 -5 46 9 4 15 19 15 40 0 32 1 33 25 22 21 -9 29 -9 42 5 16 16 16 18 -2 32 -11 8 -30 18 -42 21 -38 10 -26 24 22 24 l45 0 0 -115z"/>
 <path d="M6580 3650 c0 -23 4 -30 20 -30 16 0 20 7 20 30 0 23 -4 30 -20 30 -16 0 -20 -7 -20 -30z"/>
 <path d="M6780 3650 c0 -23 4 -30 20 -30 16 0 20 7 20 30 0 23 -4 30 -20 30 -16 0 -20 -7 -20 -30z"/>
 <path d="M1140 3578 c-48 -25 -90 -89 -90 -138 0 -49 42 -113 90 -137 24 -13 56 -23 70 -23 14 0 46 10 70 23 48 24 90 88 90 137 0 49 -42 113 -90 138 -24 12 -56 22 -70 22 -14 0 -46 -10 -70 -22z m145 -68 c43 -43 42 -98 -3 -142 -25 -26 -40 -33 -72 -33 -88 0 -138 108 -80 171 49 52 104 54 155 4z"/>
 <path d="M1700 3578 c-48 -25 -90 -89 -90 -138 0 -14 10 -46 23 -70 24 -48 88 -90 137 -90 49 0 113 42 138 90 12 24 22 56 22 70 0 14 -10 46 -22 70 -25 48 -89 90 -138 90 -14 0 -46 -10 -70 -22z m145 -68 c43 -43 42 -98 -3 -142 -25 -26 -40 -33 -72 -33 -88 0 -138 108 -80 171 49 52 104 54 155 4z"/>
 <path d="M235 3318 c-32 -18 -44 -40 -45 -76 0 -71 85 -107 144 -61 32 25 36 85 9 118 -21 26 -80 36 -108 19z m65 -53 c18 -22 8 -50 -19 -50 -32 0 -49 28 -32 49 17 20 35 20 51 1z"/>
 <path d="M875 2270 c-11 -12 -19 -36 -19 -55 0 -47 28 -75 75 -75 42 0 79 35 79 75 0 12 -9 34 -21 49 -26 33 -86 37 -114 6z m79 -46 c8 -21 -1 -34 -24 -34 -22 0 -33 23 -17 39 16 16 34 14 41 -5z"/>
 <path d="M3861 654 c-34 -43 -21 -102 26 -123 35 -16 57 -14 87 10 33 26 37 88 6 119 -31 31 -93 27 -119 -6z m87 -50 c4 -26 -26 -40 -45 -21 -8 7 -11 21 -7 31 9 24 48 17 52 -10z"/>
 <path d="M2340 520 c-13 -13 -20 -33 -20 -60 0 -53 27 -80 80 -80 53 0 80 27 80 80 0 53 -27 80 -80 80 -27 0 -47 -7 -60 -20z m85 -60 c0 -18 -6 -26 -23 -28 -13 -2 -25 3 -28 12 -10 26 4 48 28 44 17 -2 23 -10 23 -28z"/>
 <path d="M3424 506 c-3 -8 -4 -25 -2 -38 2 -19 9 -23 38 -23 33 0 35 2 35 35 0 32 -3 35 -33 38 -21 2 -34 -2 -38 -12z"/>
 <path d="M1478 3189 c-24 -14 -24 -71 0 -92 40 -36 102 -9 102 45 0 47 -57 73 -102 47z"/>
 <path d="M2011 2546 c-7 -8 -11 -32 -9 -53 2 -31 8 -39 31 -47 17 -6 37 -6 55 0 22 8 28 16 30 47 4 49 -11 67 -58 67 -21 0 -43 -6 -49 -14z"/>
 <path d="M2064 2299 c-60 -14 -144 -68 -177 -115 -78 -111 -24 -250 122 -318 39 -18 64 -21 171 -21 107 0 132 3 171 21 110 51 167 138 155 238 -6 53 -5 54 24 65 24 8 30 16 30 40 0 47 -37 66 -130 67 -41 0 -99 8 -129 17 -59 18 -170 21 -237 6z m260 -67 c42 -19 54 -20 86 -11 21 7 51 9 66 5 l27 -7 -30 -19 c-39 -23 -43 -37 -26 -77 18 -45 16 -69 -9 -114 -43 -76 -136 -119 -259 -119 -173 0 -303 102 -275 215 8 33 61 92 100 112 93 49 229 55 320 15z"/>
 <path d="M2102 2180 c-40 -25 -73 -77 -70 -110 l3 -25 145 0 145 0 3 25 c3 33 -30 85 -70 110 -43 26 -113 26 -156 0z m144 -57 l29 -28 -47 -3 c-27 -2 -69 -2 -95 0 l-48 3 29 28 c21 19 39 27 66 27 27 0 45 -8 66 -27z"/>
 <path d="M5706 1999 c-33 -26 -37 -88 -6 -119 31 -31 93 -27 119 6 34 43 21 102 -26 123 -35 16 -57 14 -87 -10z m73 -43 c17 -20 2 -48 -23 -44 -24 3 -34 37 -14 49 18 12 24 11 37 -5z"/>
 <path d="M4791 2539 c-28 -22 -51 -49 -51 -59 0 -22 95 -100 121 -100 32 0 22 36 -18 69 l-38 31 38 31 c40 33 50 69 18 69 -10 0 -41 -18 -70 -41z"/>
 <path d="M4960 2561 c0 -10 17 -33 38 -50 l37 -31 -37 -31 c-41 -33 -51 -69 -19 -69 26 0 121 78 121 100 0 22 -95 100 -121 100 -12 0 -19 -7 -19 -19z"/>
 <path d="M2715 2446 c-40 -20 -75 -51 -75 -68 1 -20 68 -67 106 -74 19 -3 49 -3 68 0 40 8 105 55 106 77 0 9 -18 29 -40 44 -48 34 -120 43 -165 21z m125 -36 c22 -11 40 -25 40 -30 0 -13 -74 -50 -101 -50 -22 0 -99 39 -99 50 0 11 75 50 98 50 12 0 41 -9 62 -20z"/>
 <path d="M2744 2406 c-3 -8 -4 -25 -2 -38 2 -19 9 -23 38 -23 33 0 35 2 35 35 0 32 -3 35 -33 38 -21 2 -34 -2 -38 -12z"/>
 <path d="M3054 846 c-30 -30 -34 -40 -34 -86 0 -46 4 -56 34 -86 30 -30 40 -34 86 -34 46 0 56 4 86 34 30 30 34 40 34 86 0 75 -45 120 -120 120 -46 0 -56 -4 -86 -34z m136 -36 c11 -11 20 -33 20 -50 0 -17 -9 -39 -20 -50 -43 -43 -120 -11 -120 50 0 38 32 70 70 70 17 0 39 -9 50 -20z"/>
 <path d="M3104 786 c-3 -8 -4 -25 -2 -38 2 -19 9 -23 38 -23 33 0 35 2 35 35 0 32 -3 35 -33 38 -21 2 -34 -2 -38 -12z"/>
 <path d="M3534 846 c-30 -30 -34 -40 -34 -86 0 -46 4 -56 34 -86 30 -30 40 -34 86 -34 46 0 56 4 86 34 30 30 34 40 34 86 0 75 -45 120 -120 120 -46 0 -56 -4 -86 -34z m136 -36 c11 -11 20 -33 20 -50 0 -17 -9 -39 -20 -50 -43 -43 -120 -11 -120 50 0 38 32 70 70 70 17 0 39 -9 50 -20z"/>
 <path d="M3584 786 c-3 -8 -4 -25 -2 -38 2 -19 9 -23 38 -23 33 0 35 2 35 35 0 32 -3 35 -33 38 -21 2 -34 -2 -38 -12z"/>
 <path d="M5225 1095 c-30 -29 -32 -55 -7 -85 21 -27 76 -30 99 -7 23 23 20 78 -7 99 -30 25 -56 23 -85 -7z m65 -45 c0 -13 -7 -20 -20 -20 -13 0 -20 7 -20 20 0 13 7 20 20 20 13 0 20 -7 20 -20z"/>
 <path d="M3120 400 c0 -13 7 -20 20 -20 13 0 20 7 20 20 0 13 -7 20 -20 20 -13 0 -20 -7 -20 -20z"/>
 <path d="M3600 400 c0 -13 7 -20 20 -20 13 0 20 7 20 20 0 13 -7 20 -20 20 -13 0 -20 -7 -20 -20z"/>
 <path d="M5580 260 l0 -80 190 0 190 0 0 80 0 80 -190 0 -190 0 0 -80z m340 20 c0 -19 -7 -20 -150 -20 -143 0 -150 1 -150 20 0 19 7 20 150 20 143 0 150 -1 150 -20z m-72 -47 c-43 -2 -113 -2 -155 0 -43 1 -8 3 77 3 85 0 120 -2 78 -3z"/>
 <path d="M6020 320 c-13 -13 -20 -33 -20 -60 0 -51 27 -80 75 -80 46 0 85 37 85 80 0 67 -93 107 -140 60z m84 -45 c8 -23 -4 -45 -25 -45 -11 0 -22 7 -25 15 -9 23 3 45 25 45 10 0 21 -7 25 -15z"/>
 <path d="M4605 5948 c15 -113 70 -220 141 -274 37 -29 117 -43 169 -30 80 20 179 173 191 294 7 62 7 62 -20 62 -22 0 -26 -4 -26 -29 0 -16 -9 -59 -20 -95 l-21 -66 -69 0 c-64 0 -70 2 -70 21 0 11 14 32 30 46 31 25 51 58 64 101 6 19 4 22 -18 22 -20 0 -30 -9 -45 -38 -39 -76 -74 -77 -107 -2 -15 33 -23 40 -46 40 -25 0 -27 -2 -18 -25 19 -50 40 -84 65 -103 14 -11 25 -29 25 -41 0 -19 -6 -21 -66 -21 l-65 0 -15 37 c-9 20 -20 62 -26 95 -9 52 -13 58 -35 58 -24 0 -25 -1 -18 -52z m359 -209 c-29 -32 -69 -49 -114 -49 -32 0 -48 7 -78 35 l-37 34 124 1 124 0 -19 -21z"/>
 <path d="M6780 5973 c96 -44 144 -42 170 7 8 15 -2 17 -108 18 l-117 1 55 -26z"/>
 <path d="M6971 5951 c-27 -63 -27 -126 -1 -169 17 -28 20 -50 20 -172 l0 -140 -67 0 c-120 0 -182 -28 -223 -103 -50 -88 -24 -199 57 -244 84 -47 171 -37 234 26 43 43 59 91 59 184 0 37 4 67 9 67 21 0 71 -72 71 -103 0 -84 50 -165 116 -189 32 -11 34 -14 34 -60 0 -26 -4 -48 -10 -48 -6 0 -10 -33 -10 -80 l0 -80 40 0 40 0 0 80 c0 47 -4 80 -10 80 -5 0 -10 20 -10 45 0 43 1 45 30 45 29 0 30 -2 30 -45 0 -25 -4 -45 -10 -45 -6 0 -10 -33 -10 -80 l0 -80 40 0 40 0 0 80 c0 47 -4 80 -10 80 -5 0 -10 20 -10 45 0 43 1 45 30 45 29 0 30 -2 30 -45 0 -25 -4 -45 -10 -45 -6 0 -10 -33 -10 -80 l0 -80 40 0 40 0 0 80 c0 47 -4 80 -10 80 -5 0 -10 20 -10 45 0 43 1 45 30 45 29 0 30 -2 30 -45 0 -25 -4 -45 -10 -45 -6 0 -10 -33 -10 -80 l0 -80 40 0 40 0 0 80 c0 47 -4 80 -10 80 -5 0 -10 20 -10 45 l0 45 78 0 c100 0 142 19 161 75 12 35 11 45 -2 78 -25 59 -56 67 -255 67 -180 0 -192 3 -192 50 0 38 18 50 77 50 l53 0 0 -35 0 -35 230 0 230 0 0 25 0 25 -165 0 -165 0 0 55 0 55 165 0 c158 0 165 1 165 20 0 19 -7 20 -230 20 l-230 0 0 -35 c0 -35 0 -35 -45 -35 -105 0 -162 -62 -134 -145 23 -66 53 -75 255 -75 182 0 194 -3 194 -50 0 -49 -6 -50 -283 -50 l-259 0 -39 39 c-30 30 -39 47 -39 72 0 83 -47 163 -110 189 l-30 12 0 125 c0 125 0 125 23 119 63 -19 87 -18 133 4 43 21 50 31 83 102 19 43 41 78 48 78 17 0 16 -19 -2 -50 -20 -34 -19 -74 3 -98 22 -25 348 -165 384 -165 15 0 34 5 42 12 19 16 106 215 106 244 0 40 -21 55 -153 112 -125 54 -130 55 -222 55 -92 0 -95 -1 -101 -24 -4 -16 -11 -23 -20 -19 -9 3 -12 13 -9 24 6 17 1 19 -34 19 -23 0 -41 -5 -41 -10 0 -7 -6 -7 -19 0 -28 14 -52 13 -72 -5 -15 -14 -18 -14 -32 0 -9 8 -25 15 -37 15 -30 0 -23 -37 12 -63 25 -18 31 -19 69 -8 22 7 43 10 46 7 9 -9 -40 -116 -53 -116 -7 0 -49 17 -94 37 -88 39 -86 36 -56 106 l16 37 -39 0 c-37 0 -40 -2 -60 -49z m519 28 c0 -5 -14 -42 -31 -82 -17 -40 -38 -87 -46 -106 -13 -30 -16 -32 -29 -19 -13 13 -10 26 26 109 23 51 44 97 46 101 8 12 34 10 34 -3z m65 -21 c30 -13 30 -13 -25 -137 -40 -88 -53 -101 -82 -79 -14 12 -12 23 31 120 25 59 47 108 48 108 1 0 14 -5 28 -12z m92 -41 c21 -12 21 -12 -25 -119 -26 -60 -52 -108 -57 -108 -6 0 -19 6 -29 13 -16 12 -15 20 29 120 26 59 50 107 54 107 3 -1 16 -6 28 -13z m102 -43 c4 -4 -19 -66 -66 -171 -22 -51 -23 -52 -52 -42 l-29 10 39 91 c57 130 57 130 82 122 12 -3 24 -8 26 -10z m67 -52 c-4 -9 -23 -56 -44 -104 -31 -74 -41 -88 -60 -88 -13 0 -22 4 -20 8 2 5 23 56 48 114 40 94 47 105 63 96 12 -6 16 -16 13 -26z m-664 -55 c-23 -11 -107 25 -121 51 -10 18 -2 17 64 -11 57 -25 70 -34 57 -40z m458 -284 c0 -10 3 -35 6 -55 5 -31 4 -38 -10 -38 -13 0 -16 11 -16 55 0 30 5 55 10 55 6 0 10 -8 10 -17z m-620 -164 l0 -91 -39 -39 c-34 -34 -44 -39 -85 -39 -26 0 -60 7 -76 15 -59 31 -78 119 -39 181 31 51 62 63 157 64 l82 0 0 -91z"/>
 <path d="M368 5223 l-268 -3 0 -380 0 -380 150 0 150 0 0 340 c0 333 0 340 -20 340 -20 0 -20 -7 -20 -315 0 -308 0 -315 -20 -315 -20 0 -20 7 -20 330 l0 330 175 0 c162 0 177 -2 195 -20 43 -43 11 -120 -50 -120 -34 0 -70 30 -70 59 0 10 -7 24 -16 31 -12 11 -18 10 -31 -3 -15 -15 -15 -20 1 -61 21 -55 57 -80 116 -80 58 0 94 24 115 76 17 44 13 86 -12 124 -15 24 -73 55 -95 52 -7 -2 -133 -4 -280 -5z m-88 -383 l0 -330 -70 0 c-56 0 -70 3 -70 15 0 11 12 15 50 15 43 0 50 3 50 20 0 17 -7 20 -50 20 -43 0 -50 3 -50 20 0 16 7 20 30 20 23 0 30 4 30 20 0 16 -7 20 -30 20 -23 0 -30 4 -30 20 0 17 7 20 50 20 43 0 50 3 50 20 0 17 -7 20 -50 20 -43 0 -50 3 -50 20 0 16 7 20 30 20 23 0 30 4 30 20 0 16 -7 20 -30 20 -23 0 -30 4 -30 20 0 17 7 20 50 20 43 0 50 3 50 20 0 17 -7 20 -50 20 -43 0 -50 3 -50 20 0 16 7 20 30 20 23 0 30 4 30 20 0 16 -7 20 -30 20 -23 0 -30 4 -30 20 0 17 7 20 50 20 43 0 50 3 50 20 0 17 -7 20 -50 20 -43 0 -50 3 -50 20 0 16 7 20 30 20 23 0 30 4 30 20 0 16 -7 20 -30 20 -20 0 -30 5 -30 15 0 12 14 15 70 15 l70 0 0 -330z"/>
 <path d="M6580 4720 c0 -16 -7 -20 -30 -20 -27 0 -30 -3 -30 -30 0 -27 3 -30 30 -30 23 0 30 -4 30 -20 0 -16 -7 -20 -30 -20 -27 0 -30 -3 -30 -30 0 -27 3 -30 30 -30 23 0 30 -4 30 -20 0 -16 -7 -20 -30 -20 -27 0 -30 -3 -30 -30 0 -27 3 -30 30 -30 23 0 30 -4 30 -20 0 -19 7 -20 170 -20 163 0 170 1 170 20 0 16 7 20 30 20 27 0 30 3 30 30 0 27 -3 30 -30 30 -23 0 -30 4 -30 20 0 16 7 20 30 20 27 0 30 3 30 30 0 27 -3 30 -30 30 -23 0 -30 4 -30 20 0 16 7 20 30 20 27 0 30 3 30 30 0 27 -3 30 -30 30 -23 0 -30 4 -30 20 0 19 -7 20 -170 20 -163 0 -170 -1 -170 -20z m300 -145 l0 -125 -125 0 -125 0 0 125 0 125 125 0 125 0 0 -125z"/>
 <path d="M6520 4310 c0 -27 3 -30 30 -30 27 0 30 3 30 30 0 27 -3 30 -30 30 -27 0 -30 -3 -30 -30z"/>
 <path d="M6600 4310 c0 -27 3 -30 30 -30 27 0 30 3 30 30 0 27 -3 30 -30 30 -27 0 -30 -3 -30 -30z"/>
 <path d="M6700 4310 l0 -30 100 0 100 0 0 30 0 30 -100 0 -100 0 0 -30z m138 3 c-21 -2 -55 -2 -75 0 -21 2 -4 4 37 4 41 0 58 -2 38 -4z"/>
 <path d="M6940 4310 c0 -27 3 -30 30 -30 27 0 30 3 30 30 0 27 -3 30 -30 30 -27 0 -30 -3 -30 -30z"/>
 <path d="M5710 3840 l0 -120 210 0 210 0 0 120 0 120 -210 0 -210 0 0 -120z m390 5 l0 -95 -77 0 -77 0 51 25 c28 14 58 34 68 45 17 19 17 21 0 40 -24 27 -113 70 -145 70 -32 0 -121 -43 -145 -70 -17 -19 -17 -21 0 -40 10 -11 40 -31 68 -45 l51 -25 -77 0 -77 0 0 95 0 95 180 0 180 0 0 -95z m-120 33 c25 -13 45 -30 45 -38 0 -8 -22 -26 -48 -39 -43 -21 -53 -22 -87 -12 -49 15 -86 44 -75 60 9 15 83 50 105 51 9 0 36 -10 60 -22z"/>
 <path d="M5884 3866 c-3 -8 -4 -25 -2 -38 2 -19 9 -23 38 -23 33 0 35 2 35 35 0 32 -3 35 -33 38 -21 2 -34 -2 -38 -12z"/>
 <path d="M5164 3356 c-35 -15 -44 -32 -44 -82 0 -47 29 -74 80 -74 53 0 80 27 80 80 0 38 -26 80 -49 80 -5 0 -15 2 -23 5 -7 2 -27 -2 -44 -9z m61 -76 c0 -18 -6 -26 -23 -28 -13 -2 -25 3 -28 12 -10 26 4 48 28 44 17 -2 23 -10 23 -28z"/>
 <path d="M4650 3326 c0 -33 -2 -35 -37 -38 l-38 -3 -3 -62 -3 -63 41 0 40 0 0 -40 0 -40 65 0 65 0 0 40 0 40 40 0 40 0 0 65 0 65 -40 0 c-39 0 -40 1 -40 35 l0 35 -65 0 -65 0 0 -34z m80 -46 l0 -40 40 0 c54 0 56 -27 3 -32 -36 -3 -38 -5 -41 -40 -5 -54 -32 -52 -32 2 l0 40 -40 0 c-29 0 -40 4 -40 15 0 11 11 15 40 15 l40 0 0 40 c0 29 4 40 15 40 11 0 15 -11 15 -40z"/>
 <path d="M4984 3236 c-35 -15 -44 -32 -44 -82 0 -47 29 -74 80 -74 27 0 47 7 60 20 13 13 20 33 20 60 0 38 -26 80 -49 80 -5 0 -15 2 -23 5 -7 2 -27 -2 -44 -9z m61 -76 c0 -18 -6 -26 -23 -28 -13 -2 -25 3 -28 12 -10 26 4 48 28 44 17 -2 23 -10 23 -28z"/>
 <path d="M6243 3025 c-12 -8 -27 -31 -33 -50 -25 -75 47 -146 125 -124 44 13 65 44 65 96 0 60 -32 93 -92 93 -24 0 -53 -7 -65 -15z m95 -47 c7 -7 12 -21 12 -33 0 -12 -5 -26 -12 -33 -7 -7 -21 -12 -33 -12 -12 0 -26 5 -33 12 -7 7 -12 21 -12 33 0 12 5 26 12 33 7 7 21 12 33 12 12 0 26 -5 33 -12z"/>
 <path d="M7423 3025 c-12 -8 -27 -31 -33 -50 -25 -75 47 -146 125 -124 44 13 65 44 65 96 0 60 -32 93 -92 93 -24 0 -53 -7 -65 -15z m95 -47 c7 -7 12 -21 12 -33 0 -12 -5 -26 -12 -33 -7 -7 -21 -12 -33 -12 -12 0 -26 5 -33 12 -7 7 -12 21 -12 33 0 12 5 26 12 33 7 7 21 12 33 12 12 0 26 -5 33 -12z"/>
 <path d="M7910 2903 c-66 -24 -152 -113 -175 -183 -41 -124 -15 -242 74 -331 78 -77 191 -117 191 -66 0 19 -8 25 -44 35 -107 28 -188 136 -188 252 0 116 81 224 188 252 36 10 44 16 44 35 0 28 -23 29 -90 6z"/>
 <path d="M80 2780 c-12 -12 -20 -33 -20 -55 0 -32 -2 -35 -30 -35 -25 0 -30 -4 -30 -25 0 -21 5 -25 30 -25 25 0 30 -4 30 -25 0 -21 -5 -25 -30 -25 -25 0 -30 -4 -30 -25 0 -21 5 -25 30 -25 28 0 30 -2 30 -39 0 -46 35 -81 80 -81 15 0 39 9 54 21 21 16 26 29 26 64 0 35 -5 48 -26 64 -15 12 -41 21 -60 21 -30 0 -34 3 -34 25 0 22 4 25 34 25 51 0 86 33 86 81 0 52 -27 79 -80 79 -27 0 -47 -7 -60 -20z m85 -60 c0 -21 -5 -26 -32 -28 -35 -3 -40 6 -22 39 15 30 54 22 54 -11z m-11 -186 c20 -8 21 -50 1 -58 -16 -6 -45 2 -45 13 0 3 -3 16 -6 29 -5 17 -2 22 14 22 11 0 27 -3 36 -6z"/>
 <path d="M7860 2780 c-13 -13 -20 -33 -20 -59 0 -48 35 -81 86 -81 30 0 34 -3 34 -25 0 -22 -4 -25 -34 -25 -19 0 -45 -9 -60 -21 -21 -16 -26 -29 -26 -64 0 -35 5 -48 26 -64 15 -12 39 -21 54 -21 15 0 39 9 54 21 l26 20 0 150 c0 136 -2 151 -20 169 -13 13 -33 20 -60 20 -27 0 -47 -7 -60 -20z m90 -49 c16 -32 12 -41 -20 -41 -32 0 -47 18 -36 45 8 21 43 19 56 -4z m10 -198 c-1 -42 -26 -68 -55 -57 -18 7 -20 50 -2 57 19 8 57 8 57 0z"/>
 <path d="M4874 1956 c-30 -30 -34 -40 -34 -84 0 -61 27 -99 80 -111 81 -18 150 35 150 116 0 38 -5 50 -34 79 -29 29 -41 34 -81 34 -40 0 -52 -5 -81 -34z m126 -36 c40 -40 14 -110 -42 -110 -42 0 -68 25 -68 66 0 57 69 85 110 44z"/>
 <path d="M3047 1574 c-25 -24 -26 -31 -26 -134 0 -103 1 -110 26 -134 37 -37 109 -37 146 0 25 24 26 31 26 134 0 103 -1 110 -26 134 -20 21 -36 26 -73 26 -37 0 -53 -5 -73 -26z m33 -200 c5 -25 9 -29 40 -29 31 0 35 4 40 29 7 41 30 46 30 7 0 -40 -31 -71 -70 -71 -39 0 -70 31 -70 71 0 39 23 34 30 -7z m58 14 c-6 -18 -28 -21 -28 -4 0 9 7 16 16 16 9 0 14 -5 12 -12z"/>
 <path d="M420 1510 c0 -5 -11 -10 -23 -10 -13 0 -31 -8 -40 -18 -15 -17 -17 -58 -17 -390 l0 -372 40 0 c22 0 40 -4 40 -10 0 -6 27 -10 60 -10 33 0 60 4 60 10 0 6 63 10 170 10 l170 0 0 390 0 390 -170 0 c-107 0 -170 4 -170 10 0 6 -27 10 -60 10 -33 0 -60 -4 -60 -10z m0 -75 c0 -16 -6 -25 -15 -25 -18 0 -20 21 -3 38 17 17 18 16 18 -13z m420 0 l0 -25 -150 0 -150 0 0 25 0 25 150 0 150 0 0 -25z m0 -370 l0 -295 -150 0 -150 0 0 295 0 295 150 0 150 0 0 -295z m-420 -5 c0 -251 -2 -290 -15 -290 -13 0 -15 39 -15 290 0 251 2 290 15 290 13 0 15 -39 15 -290z"/>
 <path d="M4464 1068 c-23 -11 -44 -48 -44 -77 0 -10 9 -30 21 -45 16 -20 29 -26 60 -26 52 0 79 27 79 79 0 63 -58 98 -116 69z m54 -47 c20 -12 10 -46 -14 -49 -25 -4 -40 24 -23 44 13 16 19 17 37 5z"/>
 <path d="M0 581 c0 -12 9 -22 23 -26 57 -16 79 -30 94 -58 13 -26 13 -32 2 -36 -8 -2 -29 -19 -47 -37 -28 -28 -32 -39 -32 -84 0 -46 4 -56 34 -86 19 -19 41 -34 49 -34 9 0 16 -14 20 -40 3 -23 17 -56 31 -74 41 -54 79 -66 205 -66 104 0 111 -1 111 -20 0 -15 7 -20 25 -20 22 0 25 4 25 39 0 26 -5 41 -16 45 -9 3 -70 6 -136 6 l-120 0 -39 39 c-44 43 -52 85 -19 96 10 3 31 20 45 36 19 24 25 42 25 81 0 44 -4 54 -34 84 -19 19 -41 34 -50 34 -9 0 -16 8 -16 18 0 28 -37 81 -72 102 -18 11 -50 20 -70 20 -31 0 -38 -4 -38 -19z m210 -191 c43 -43 11 -120 -50 -120 -38 0 -70 32 -70 70 0 38 32 70 70 70 17 0 39 -9 50 -20z"/>
 <path d="M464 539 c-73 -28 -136 -84 -132 -118 3 -22 8 -26 33 -25 17 0 51 7 78 14 45 14 48 13 70 -8 22 -22 26 -65 27 -294 0 -5 43 -8 95 -8 l95 0 0 -50 c0 -47 2 -50 25 -50 24 0 25 2 25 69 0 61 -3 70 -20 76 -18 6 -20 15 -19 93 0 70 2 83 11 64 10 -20 18 -22 100 -22 l88 0 0 140 0 140 -90 0 c-83 0 -90 -2 -90 -20 0 -20 0 -20 -50 0 -67 26 -176 26 -246 -1z m426 -114 l0 -95 -38 0 c-25 0 -43 7 -55 20 -17 20 -51 26 -81 14 -13 -5 -16 -25 -16 -110 l0 -104 -60 0 -60 0 1 125 c1 101 -3 131 -16 151 -18 27 -52 44 -93 44 l-27 1 30 16 c16 9 60 18 97 21 54 4 77 0 117 -17 27 -11 63 -21 80 -21 26 0 31 4 31 25 0 23 4 25 45 25 l45 0 0 -95z"/>
 <path d="M5264 508 c-23 -11 -44 -48 -44 -77 0 -10 9 -30 21 -45 16 -20 29 -26 60 -26 52 0 79 27 79 79 0 63 -58 98 -116 69z m54 -47 c20 -12 10 -46 -14 -49 -25 -4 -40 24 -23 44 13 16 19 17 37 5z"/>
 <path d="M2058 251 c-17 -16 -28 -37 -28 -54 0 -63 -80 -90 -124 -42 -28 30 -52 32 -65 6 -16 -29 -40 -33 -76 -11 -28 18 -50 20 -172 20 -111 0 -143 -3 -153 -15 -24 -29 0 -35 135 -35 117 0 139 -3 167 -20 39 -24 63 -25 101 -5 26 13 31 13 50 0 12 -8 43 -15 70 -15 42 0 54 5 83 34 19 19 34 44 34 58 0 13 9 29 20 36 26 16 28 73 3 71 -10 -1 -30 -13 -45 -28z"/>
 <path d="M1160 140 c0 -17 7 -20 40 -20 33 0 40 3 40 20 0 17 -7 20 -40 20 -33 0 -40 -3 -40 -20z"/>
 <path d="M1280 140 c0 -18 7 -20 60 -20 53 0 60 2 60 20 0 18 -7 20 -60 20 -53 0 -60 -2 -60 -20z"/>
 <path d="M7422 28 c-23 -23 -11 -28 76 -27 l87 0 -40 19 c-46 21 -106 25 -123 8z"/>
 <path d="M1903 23 c-22 -8 -14 -23 12 -23 14 0 25 4 25 9 0 11 -21 19 -37 14z"/>
 </g>

</svg>